<svg width="1082" height="297" viewBox="0 0 1082 297" fill="none" xmlns="http://www.w3.org/2000/svg">
<path d="M10.6392 195.449C2.43947 146.469 12.8288 99.7614 37.2382 65.3538C61.5581 31.0726 99.9893 8.67472 148.946 8.23741C196.887 7.80916 254.7 10.432 319.384 13.3664C323.994 13.5756 328.639 13.7863 333.319 13.9977C403.55 17.1697 481.223 20.4645 562.194 20.4645C705.222 20.4645 834.459 34.9233 927.722 58.1715C974.41 69.81 1011.66 83.5497 1037.06 98.5186C1062.13 113.292 1073.45 127.904 1074.16 141.138C1048.81 204.959 990.053 236.658 906.55 251.661C824.073 266.48 719.648 264.597 604.404 262.519C601.972 262.475 599.535 262.431 597.094 262.387C516.416 260.938 435.622 268.938 355.988 278.563C218.679 295.159 134.734 290.988 83.8903 274.226C58.6424 265.903 41.8887 254.579 30.7262 241.44C19.5695 228.308 13.5494 212.834 10.6392 195.449Z" stroke="#155929" stroke-width="15"/>
</svg>
