<svg width="1173" height="310" viewBox="0 0 1173 310" fill="none" xmlns="http://www.w3.org/2000/svg">
<path d="M253.433 291.076L253.255 291.102L253.079 291.136C171.729 306.839 117.729 304.222 81.9342 291.478C46.6373 278.911 28.4751 256.302 18.9368 229.93C6.14979 194.577 4.4109 153.283 14.4314 117.121C24.4411 80.9987 45.9503 50.6632 79.1209 35.8154C123.674 15.8727 196.247 7.27921 318.946 17.2256C377.823 21.9983 437.155 20.9683 495.853 15.1801C672.156 -2.20469 840.804 12.6101 965.191 41.5699C1027.43 56.0595 1078.25 74.0129 1113.32 93.0334C1130.87 102.553 1144.15 112.165 1152.95 121.48C1161.29 130.309 1165.07 138.283 1165.46 145.261C1148.71 190.377 1122.49 216.273 1083.45 231.642C1043.32 247.441 989.355 252.237 917.128 253.776C888.789 254.38 857.776 254.483 823.898 254.595C685.712 255.054 499.862 255.671 253.433 291.076Z" stroke="#155929" stroke-width="15"/>
</svg>
