<?xml version="1.0" ?><svg id="Flat" viewBox="0 0 340 340" xmlns="http://www.w3.org/2000/svg"><title/><path d="M30.005,297.579l-6.372-8.85a14.844,14.844,0,0,1,1.328-18.945l22.43-23.4a16.849,16.849,0,0,0,4.574-10.411c.584-7.656,4.328-20.8,22.8-23.362l18.073-20.14s-2.285-22.854,18.516-26.849a16.3,16.3,0,0,0,8.256-4.321c10.25-9.93,37.211-38.069,48.72-69.525,0,0-23.675-27.245,0-52.155,0,0,14.236-14.9,18.6-25.088a1.47,1.47,0,0,1,2.583-.2c6.212,9.682,26.507,46.34,1.288,78.423a30,30,0,0,0-5.267,10.574c-2.9,10.486-10.184,32.364-24.6,51.4l-27.812,39.8L37.069,297.579Z" style="fill:#88d882"/><path d="M73.342,227.7a25.906,25.906,0,0,0,7-21.309l-5.577,6.216a36.616,36.616,0,0,1-3.344,13.719A1.193,1.193,0,0,0,73.342,227.7Z" style="fill:#54964d"/><path d="M138.9,160.688a21.565,21.565,0,0,1-4.883,9.473c-5.235,5.842-13.774,14.978-13.774,14.978a9.231,9.231,0,0,1-4.6,2.921c-7.036,1.911-23.388,8.957-26.649,33.457a35.237,35.237,0,0,1-5.642,5.892l-.448.367-.391.428L25.229,290.945l4.776,6.634h7.064l96.048-103.047,27.812-39.8A137.644,137.644,0,0,0,175.28,130.8h-4.674C162.684,131.682,144.633,136.4,138.9,160.688Z" style="fill:#54964d"/><path d="M42.121,317.565l6.367,5.263a15.356,15.356,0,0,0,20.827-1.165l52.094-55.945a23.144,23.144,0,0,1,12.709-6.772c8.516-1.458,22.3-7.677,21.758-32.722l23.591-26.117a6.6,6.6,0,0,1,6.065-2.048c5.647.991,17.477.905,28.858-12.824a23.8,23.8,0,0,1,16.6-8.69c.953-.067,1.946-.106,2.972-.11a30.735,30.735,0,0,1,19.419,6.824c9.531,7.7,33.606,21.608,66.013.57a2.611,2.611,0,0,0,1.01-3.1c-3.093-8.356-17.845-39.475-61.75-23.743a21.222,21.222,0,0,1-9.065,1.14c-14.047-1.259-57.227-7.2-92.307,31.634L39.592,304.21Z" style="fill:#54964d"/><path d="M157.286,189.758,39.592,304.21l2.529,13.355,6.194,5.12,9.595-9.6a14.235,14.235,0,0,1,7.846-3.943C73.4,307.9,91,301.931,92.873,273.521a61.08,61.08,0,0,1,5.389-5.438l.259-.238.237-.259,28.03-30.681a13.646,13.646,0,0,1,6.761-4.088c6.281-1.569,20.88-7.756,22.862-31.426.886-1.467,3-3.071,4.963-4.489l.687-.495.568-.629,27.212-30.127A98.015,98.015,0,0,0,157.286,189.758Z" style="fill:#54964d"/><path d="M23.116,321.731h0a11.1,11.1,0,0,0,15.254-.415l13.883-13.884A22.29,22.29,0,0,1,64.47,301.25C72.133,300,84.239,294.292,85,270.787c1.636-2.68,4.6-5.612,7.854-8.6l28.029-30.681a21.686,21.686,0,0,1,10.729-6.453c6.233-1.557,15.8-6.992,16.92-25.6,1.313-3.836,4.64-6.493,8.162-9.036l27.719-30.689a54.182,54.182,0,0,1,10.932-12.1s24.987,0,29-24.095a22.208,22.208,0,0,1,5.324-11.3L237,104.108a12.953,12.953,0,0,1,8.059-4.187c14.4-1.743,57.791-12.635,57.367-80.6a3.818,3.818,0,0,0-4.462-3.729c-14.751,2.505-62.222,14.583-71.4,67.028a13.022,13.022,0,0,1-3.259,6.6l-40.771,44.051a17.639,17.639,0,0,1-11.048,5.48c-8.31.924-22.627,5.918-25.748,28.934a18.178,18.178,0,0,1-7.339,8.563l-12.083,14.1a17.261,17.261,0,0,1-8.581,5.435c-6.824,1.853-19.049,8.052-21.039,28.75a44.731,44.731,0,0,1-8.279,9.067L22.328,305.987A11.1,11.1,0,0,0,23.116,321.731Z" style="fill:#88d882"/><path d="M114.612,220.064a1.59,1.59,0,0,0-2.326-2.1,35.162,35.162,0,0,1-15.585,6.57L88.422,233.6C103,233.305,110.667,226.323,114.612,220.064Z" style="fill:#54964d"/><path d="M136.937,199.125a1.859,1.859,0,0,0,2.307,2.826,22.447,22.447,0,0,1,9.286-2.5l8.162-9.036C146.123,190.988,140.2,195.164,136.937,199.125Z" style="fill:#54964d"/><path d="M64.771,278.68a1.548,1.548,0,0,0,2.347,1.954A45.876,45.876,0,0,1,85,270.787l7.854-8.6C76.744,263.826,68.657,272.178,64.771,278.68Z" style="fill:#54964d"/><path d="M162.718,162.7a1.318,1.318,0,0,0-1.937-1.734,31.54,31.54,0,0,1-15.038,6.719l-7.339,8.563C151.439,176.288,158.842,168.85,162.718,162.7Z" style="fill:#54964d"/><path d="M197.974,134.309a1.579,1.579,0,0,0-2.334-2.078c-5.662,4.811-11.049,13.156-11.229,27.5l10.932-12.1A18.312,18.312,0,0,1,197.974,134.309Z" style="fill:#54964d"/><circle cx="266.314" cy="37.96" r="3.777" style="fill:#54964d"/><path d="M298.117,53.243l0-.006a42.293,42.293,0,0,0-29.5-.364c.068-.308.133-.618.2-.931a4.01,4.01,0,0,0-3.723-4.813h0a3.988,3.988,0,0,0-4.108,3.184A37.754,37.754,0,0,1,248.3,72.256c-.065.047-.136.081-.2.133-.276.228-.539.463-.8.7a47.2,47.2,0,0,1-20.649,9.1l-.013.015a13.025,13.025,0,0,1-3.325,7.024l-1.562,1.688,4.681-.612a53.709,53.709,0,0,0,11.982-3.263,39.855,39.855,0,0,0-1.927,13.324l0,4.329.523-.579a12.944,12.944,0,0,1,7.474-4.089v-.01c-.008-.137-.68-13.691,8.717-21.452a3.989,3.989,0,0,0,.588-.6,44.882,44.882,0,0,0,6.49-6.841,30.7,30.7,0,0,1,33.879-10.785q.66.219,1.33.467Q296.927,57.238,298.117,53.243Z" style="fill:#54964d"/><path d="M199.569,35.783c-2.742,9.945-10.667,16.242-15.531,19.275a52.477,52.477,0,0,0-2.386-5.748,4.133,4.133,0,0,0-5.106-2.183,4,4,0,0,0-2.178,5.5c4.1,8.395,4.918,15.89,2.424,22.277-2.5,6.4-7.785,8.89-12.48,11.1,1.706,2.65,4.019,5.775,4.019,5.775a18.369,18.369,0,0,0,7.715-2.235,47.055,47.055,0,0,0,8.942,15.708c.2-.674.378-1.317.544-1.918a31.024,31.024,0,0,1,2.792-6.849,42.42,42.42,0,0,1-5.27-11.32,7.728,7.728,0,0,1,.409-5.538q.4-.838.749-1.726a28.92,28.92,0,0,0,1.99-11.229,6.159,6.159,0,0,1,2.851-5.277,46.279,46.279,0,0,0,13.43-12.914A77.032,77.032,0,0,0,199.569,35.783Z" style="fill:#54964d"/></svg>