<?xml version="1.0" ?><svg id="icon" viewBox="0 0 512 512" xmlns="http://www.w3.org/2000/svg"><title/><path d="M288.511,102.132a14.58,14.58,0,0,0-22.806.366l-71.267,92.488L123.17,287.474a14.581,14.581,0,0,0,5.458,22.147l178.983,82.293,53.048-68.844,53.049-68.844Z" style="fill:#fff"/><path d="M360.659,323.07l53.049-68.844-19.582-23.789-77.755,104.84a35.268,35.268,0,0,1-43.238,10.952l-143.611-67-6.352,8.243a14.58,14.58,0,0,0,5.459,22.147l178.982,82.293Z" style="fill:#d1d1e5"/><path d="M305.926,123.287l-17.415-21.155a14.58,14.58,0,0,0-22.806.366l-71.267,92.488L123.17,287.474a14.581,14.581,0,0,0,5.458,22.147l24.9,11.446Z" style="fill:#ffd176"/><path d="M153.524,321.067,170.89,298.53l-41.368-19.3-5.646,7.328-.706.915a14.468,14.468,0,0,0-3.03,9.237,14.7,14.7,0,0,0,2.3,7.534,14.448,14.448,0,0,0,6.19,5.375Z" style="fill:#f4a53b"/><path d="M457.8,288.2l-44.094-33.977-106.1,137.688h0a12.507,12.507,0,0,1-1.557,21.051L255.836,439.91a8.881,8.881,0,0,0-1.222,14.86l22.8,17.57a17.489,17.489,0,0,0,18.452,1.81l57.046-28.33a51.583,51.583,0,0,1,34.439-4.519,86.43,86.43,0,0,0,86.16-31.855h0A86.448,86.448,0,0,0,457.8,288.2Z" style="fill:#e86363"/><path d="M168.787,176.241c-15.535,20.162-16.866,45.184-2.972,55.891l56.259-73.011C208.18,148.415,184.323,156.08,168.787,176.241Z" style="fill:#e86363"/><path d="M98.57,119.9a5.794,5.794,0,0,1-4.112-1.7L69.9,93.638a5.816,5.816,0,0,1,8.225-8.224l24.561,24.561A5.816,5.816,0,0,1,98.57,119.9Z" style="fill:#ffd176"/><path d="M61.049,194.629c-.053,0-.106,0-.16,0L26.17,193.69a5.816,5.816,0,0,1,.313-11.628L61.2,183a5.816,5.816,0,0,1-.154,11.63Z" style="fill:#ffd176"/><path d="M173.294,82.379a5.817,5.817,0,0,1-5.811-5.658L166.546,42a5.816,5.816,0,0,1,11.627-.315l.937,34.721a5.816,5.816,0,0,1-5.656,5.971C173.4,82.379,173.347,82.379,173.294,82.379Z" style="fill:#ffd176"/><path d="M412.052,400.7a91.865,91.865,0,0,1-16.715-5.1L330.429,362.3l-22.818,29.612a12.507,12.507,0,0,1-1.557,21.051L255.836,439.91a8.881,8.881,0,0,0-1.222,14.86l22.8,17.57a17.489,17.489,0,0,0,18.452,1.81l57.045-28.33a51.587,51.587,0,0,1,34.44-4.519,86.463,86.463,0,0,0,103.569-74.716C476,387.042,450.662,408.293,412.052,400.7Z" style="fill:#cc3a3a"/></svg>