<?xml version="1.0" ?><svg id="Flat" viewBox="0 0 340 340" xmlns="http://www.w3.org/2000/svg"><title/><path d="M276.716,16.7h0a7.615,7.615,0,0,1,.833,9.783l-9.482,13.406a25,25,0,0,0-4.6,14.157c-.11,9.921-1.949,27.751-12.689,39.351L102.11,258.234S44.383,275.77,15.6,234.308c-6.056-8.724-.384-20.794,10.219-21.4,16.682-.961,40.463-5.831,59.777-23.474,1.073-.98,2.075-2.027,3.05-3.105,10.773-11.915,77.8-86.192,94.951-108.482,0,0,23.99-34.942,56.212-39.4a24.975,24.975,0,0,0,16.107-9.211l9.454-11.886A7.616,7.616,0,0,1,276.716,16.7Z" style="fill:#88d882"/><path d="M250.777,93.394c9.474-10.231,12.019-25.3,12.564-35.526a96.5,96.5,0,0,0-30.079,19.66,125.481,125.481,0,0,0-22.443,28.862,33.382,33.382,0,0,1-8.02,9.479c-17.782,14.454-29.383,32.15-34.715,41.412a34.257,34.257,0,0,1-8.061,9.435c-20.311,16.608-35.07,35.552-42.06,45.366a33.864,33.864,0,0,1-8.423,8.129C96.528,229.2,82.92,244.71,73.8,256.138a34.47,34.47,0,0,1-5.656,5.6,107.536,107.536,0,0,0,33.97-3.5Z" style="fill:#54964d"/><path d="M325.6,37.183h0a7.85,7.85,0,0,1,.267,8.141L316.712,61.6a29.9,29.9,0,0,0-3.825,13.145c-.7,13.819-4.612,46.791-25.435,73.272a68.365,68.365,0,0,0-7.751,12.254c-4.67,9.57-15.073,27.73-32.368,42.013a63.843,63.843,0,0,0-13.549,15.539c-5.9,9.485-16,23.857-27.832,32.823a64.247,64.247,0,0,0-13.768,14.223c-5.927,8.423-15.8,20.73-27.842,29.14a59.184,59.184,0,0,0-8.536,7.2c-11.577,11.884-50.282,43.488-107.968,7.93-11.276-6.951-8.962-24.008,3.805-27.535,3.17-.876,6.392-1.82,9.56-2.824a45.9,45.9,0,0,0,21.971-15.158c8-10.02,21.113-25.2,33.186-33.541a45.842,45.842,0,0,0,11.377-11.04,228.465,228.465,0,0,1,39.882-43.038,46.344,46.344,0,0,0,10.864-12.738c5.236-9.092,15.821-25.029,31.885-38.088a45.5,45.5,0,0,0,10.891-12.873c7.588-13.388,26.591-40.361,59.455-47.24A30.113,30.113,0,0,0,297.82,54.822l15.145-18.349A7.855,7.855,0,0,1,325.6,37.183Z" style="fill:#aae5a5"/><path d="M299.505,110.174A27.135,27.135,0,0,0,272.4,83.069c-.9,0-1.806.044-2.7.132a27.055,27.055,0,0,0-24.039,22.543q-.108.666-.185,1.334a8.735,8.735,0,0,1-6.65,7.586c-19.644,4.631-21.374,18.788-20.962,26.015a4.16,4.16,0,0,1-3.788,4.413l-.035,0a30.067,30.067,0,0,0-27.082,24.9c-.029.169-.056.338-.082.507a14.56,14.56,0,0,1-10.175,11.85c-10.259,3.039-24.333,10.816-23.091,30.511l0,.056a5.875,5.875,0,0,1-4.877,6.146c-9.229,1.614-27.025,7.594-25.928,29.558.01.219,0,.44.007.66a1.492,1.492,0,0,1-1.534,1.576q-.5-.017-1-.017c-.513,0-1.034.014-1.548.04a28.564,28.564,0,0,0,1.548,57.086,29.6,29.6,0,0,0,3.319-.189A28.51,28.51,0,0,0,148.5,283.822q.1-.66.172-1.323a4.114,4.114,0,0,1,4.133-3.71h.166a30.153,30.153,0,0,0,30.164-30.635,2.86,2.86,0,0,1,2.871-2.861h.031a32.456,32.456,0,0,0,32.172-28.284l.014-.119a17.975,17.975,0,0,1,10.669-14.153,30.213,30.213,0,0,0,17.963-27.589v-.058A6.51,6.51,0,0,1,252,168.723q.348-.077.693-.16a27.839,27.839,0,0,0,20.9-23.333,28.257,28.257,0,0,0,.105-6.417,1.527,1.527,0,0,1,1.365-1.665A27.146,27.146,0,0,0,299.505,110.174Z" style="fill:#54964d"/><path d="M271.555,92.024c-11.2-.317-19.227,8.69-20.307,19.726a18.5,18.5,0,0,0,2.111,10.844.664.664,0,0,1-.848.919,20.43,20.43,0,0,0-25.124,29.259.872.872,0,0,1-1.037,1.277,21.888,21.888,0,0,0-10.051-1.266c-12.5,1.233-22.33,10.189-22.741,22.742a23.545,23.545,0,0,0,3.3,13.061.684.684,0,0,1-.841.991,25.521,25.521,0,0,0-18.242-.61,24.254,24.254,0,0,0-16.338,20.473,28.413,28.413,0,0,0,3.111,16.787.68.68,0,0,1-.893.937,22.985,22.985,0,0,0-15.942-1.482,22.477,22.477,0,0,0-16.189,17.509,23.9,23.9,0,0,0,1.875,15.457.678.678,0,0,1-.951.893,21.541,21.541,0,0,0-11.645-2.836A21.238,21.238,0,0,0,100.641,275.4c-1.746,15.52,13.31,28.16,29.3,22.048a20.054,20.054,0,0,0,12.437-14.916,22.383,22.383,0,0,0-1.66-14.11.683.683,0,0,1,.96-.895,22.417,22.417,0,0,0,18.333,1.694c9.17-2.907,16.02-10.891,16.466-20.5a22.642,22.642,0,0,0-2.767-11.993.68.68,0,0,1,.876-.946,21.066,21.066,0,0,0,11.63,1.723c13.675-1.753,24.964-11.176,24.964-24.963a24.826,24.826,0,0,0-4.48-14.261.68.68,0,0,1,.786-1.025c5.022,1.736,11.02,1.548,17.341-1.354a24.171,24.171,0,0,0,13.841-17.464,23.318,23.318,0,0,0-2.289-15.693.87.87,0,0,1,1.066-1.254,20.249,20.249,0,0,0,9.129,1.439A20.429,20.429,0,0,0,262.268,131.5a.663.663,0,0,1,.763-.982,21,21,0,0,0,7.951.967c11.226-.7,20.3-9.364,19.707-20.787A19.866,19.866,0,0,0,271.555,92.024Z" style="fill:#88d882"/><path d="M88.789,223.452a4,4,0,0,1-1.861-7.544l.837-.443a4,4,0,1,1,3.784,7.047l-.905.481A3.986,3.986,0,0,1,88.789,223.452Z" style="fill:#54964d"/><path d="M66.869,223.4c-23.376,5.109-39.727-4.121-46.436-9.046a13.39,13.39,0,0,0-5.711,5.706A63.864,63.864,0,0,0,53.36,232.894a71.13,71.13,0,0,0,15.217-1.682,4,4,0,1,0-1.708-7.815Z" style="fill:#54964d"/><circle cx="263.889" cy="105.298" r="5.287" style="fill:#b3eaad"/><circle cx="239.04" cy="137.147" r="5.662" style="fill:#b3eaad"/><circle cx="208.367" cy="167.733" r="5.993" style="fill:#b3eaad"/><circle cx="177.603" cy="203.265" r="6.345" style="fill:#b3eaad"/><circle cx="147.498" cy="238.039" r="5.835" style="fill:#b3eaad"/><circle cx="114.888" cy="269.23" r="4.514" style="fill:#b3eaad"/></svg>