<svg width="1440" height="215" viewBox="0 0 1440 215" fill="none" xmlns="http://www.w3.org/2000/svg">
<path d="M-27.9907 215C-38.7366 155.202 -5.55459 96.1848 51.1209 74.2938L68.3791 67.6278C131.733 43.1573 201.467 40.659 266.41 60.5333L321.165 77.29C354.718 87.5581 390.474 88.2312 424.39 79.2332L555.693 44.3975C591.714 34.8407 629.492 33.988 665.908 41.9097L821.169 75.6845C841.623 80.1339 862.926 78.5998 882.531 71.2655L1007.1 24.6625C1041.43 11.8217 1079.58 14.0651 1112.16 30.8404L1169.6 60.4114C1195.04 73.5088 1226.06 68.2916 1245.82 47.5943L1250.95 42.2223C1307.8 -17.3373 1404.51 -11.6596 1454 54.1434L1436.5 215H-27.9907Z" fill="#155929"/>
</svg>
