<?xml version="1.0" ?><svg id="icon" viewBox="0 0 512 512" xmlns="http://www.w3.org/2000/svg"><defs><style>.cls-1{fill:#c66;}.cls-2{fill:#5e233b;}.cls-3{fill:#b0b779;}.cls-4{fill:#87894c;}</style></defs><title/><rect class="cls-1" height="128.59" width="56.81" x="227.59" y="358.21"/><rect class="cls-2" height="36.82" width="56.81" x="227.59" y="358.21"/><path class="cls-3" d="M333.39,252.45h21.49c8.44,0,13.37-9.84,8.5-17l-58.46-85.79h23.73c8.43,0,13.36-9.84,8.5-17L268.43,31.87a14.92,14.92,0,0,0-24.86,0L174.85,132.71c-4.86,7.13.07,17,8.5,17h23.73l-58.46,85.79c-4.87,7.14.06,17,8.5,17h21.49L118.1,341.23c-4.86,7.13.07,17,8.51,17H385.39c8.44,0,13.37-9.85,8.51-17Z"/><polygon class="cls-4" points="355.47 284.85 333.39 252.45 178.61 252.45 156.53 284.85 355.47 284.85"/><polygon class="cls-4" points="304.92 149.68 207.08 149.68 185.34 181.57 326.66 181.57 304.92 149.68"/></svg>