<?xml version="1.0" ?><svg id="icon" viewBox="0 0 512 512" xmlns="http://www.w3.org/2000/svg"><defs><style>.cls-1{fill:#c66;}.cls-2{fill:#5e233b;}.cls-3{fill:#87894c;}.cls-4{fill:#b0b779;}</style></defs><title/><path class="cls-1" d="M304.21,256h0A11.21,11.21,0,0,0,293,267.21v12.65a31.72,31.72,0,0,1-23.42,30.69c-.53.14-.82.2-.82.2V183.36a16.28,16.28,0,0,0-16.28-16.28h0a16.28,16.28,0,0,0-16.29,16.28v41.82l-.82-.21A31.69,31.69,0,0,1,212,194.29v-.89a11.22,11.22,0,0,0-22.43,0v3.51c0,22.28,13,42.78,33.45,51.54l1.15.48a19.39,19.39,0,0,1,12.06,18V486.8h32.57V352.46a19.39,19.39,0,0,1,12.06-18c.39-.15.77-.31,1.15-.48,20.48-8.76,33.45-29.26,33.45-51.54V267.21A11.21,11.21,0,0,0,304.21,256Z"/><path class="cls-2" d="M304.21,256A11.21,11.21,0,0,0,293,267.21v12.65a31.9,31.9,0,0,1-4.24,15.86h25.09a57.23,57.23,0,0,0,1.57-13.24V267.21A11.21,11.21,0,0,0,304.21,256Z"/><path class="cls-2" d="M236.19,295.72h32.57V183.36a16.29,16.29,0,0,0-32.57,0v41.82l-.82-.21A31.69,31.69,0,0,1,212,194.29v-.89a11.22,11.22,0,0,0-22.43,0v3.51c0,22.28,13,42.78,33.45,51.54l1.15.48a19.39,19.39,0,0,1,12.06,18v28.83Z"/><path class="cls-3" d="M477.46,457.13q.19-.72.36-1.47a33.57,33.57,0,0,0-5-27,30.59,30.59,0,0,0-8.77-8.23,23.08,23.08,0,0,1-10.7-17.22c-1.23-11.86-6.24-29.26-23.83-40.67a60.2,60.2,0,0,0-58.48-3.9c-13.95,6.66-28.5,20.2-32.92,47.65,0,0-49.39-5.27-52.68,38.2,0,0-29.63-1.48-43.46,20.41,0,0-18.44,16.12-48.07,21.89H438.28C456.51,486.8,472.89,474.78,477.46,457.13Z"/><path class="cls-4" d="M34.54,457.13q-.2-.72-.36-1.47a33.57,33.57,0,0,1,5-27A30.59,30.59,0,0,1,48,420.44a23.08,23.08,0,0,0,10.7-17.22C59.9,391.36,64.91,374,82.5,362.55a60.2,60.2,0,0,1,58.48-3.9c14,6.66,28.5,20.2,32.92,47.65,0,0,49.39-5.27,52.68,38.2,0,0,29.63-1.48,43.46,20.41,0,0,18.44,16.12,48.07,21.89H73.72C55.49,486.8,39.11,474.78,34.54,457.13Z"/><path class="cls-4" d="M384.1,172.69c-9.21-5.16-15-14.51-15-24.76,0-22.3-18.81-40.38-42-40.38h-5c1.61-5.74,2.49-7.36,2.49-13.59,0-38-32-68.76-71.54-68.76S181.5,56,181.5,94c0,6.23.88,7.85,2.5,13.59h-5c-23.2,0-42,18.08-42,40.38h0c0,10.25-5.8,19.6-15,24.76-17.23,9.63-28.8,27.56-28.8,48.1,0,30.72,25.91,55.62,57.87,55.62H355c32,0,57.87-24.9,57.87-55.62C412.91,200.25,401.33,182.32,384.1,172.69Z"/><path class="cls-3" d="M389.1,175.86c-13.3,29-39.3,46-71,55.54-33.16,9.95-116.47,10.5-158.87-8-30.84-13.48-38.47-34.18-39.37-49.4-16.05,9.88-26.7,27.15-26.7,46.83,0,30.72,25.92,55.62,57.88,55.62H355c32,0,57.87-24.9,57.87-55.62C412.91,202.31,403.52,186,389.1,175.86Z"/></svg>