<svg width="1068" height="261" viewBox="0 0 1068 261" fill="none" xmlns="http://www.w3.org/2000/svg">
<g filter="url(#filter0_d_1896_28028)">
<path d="M1035.77 66.3378C1079.28 121.991 1048.26 204.216 978.88 222.095C897.009 243.192 768.474 248.379 622.317 235.903C562.05 230.758 501.377 232.053 441.338 238.374C299.566 253.298 191.108 243.42 118.431 221.368C82.069 210.335 55.0417 196.369 37.2569 181.274C19.9809 166.612 11.9628 151.4 11.5195 137.022C23.9064 103.511 51.8342 78.4509 92.2276 59.9087C133.177 41.1115 186.203 29.3754 246.665 22.3829C360.967 9.16398 499.872 13.0818 629.933 16.7501C637.486 16.9631 645.009 17.1753 652.495 17.3833C690.978 18.4521 729.673 15.5628 767.882 12.7096C776.75 12.0474 785.592 11.3872 794.4 10.7788C841.388 7.53314 887.636 5.73341 933.233 12.4791C984.089 20.0026 1015.93 40.9547 1035.77 66.3378Z" stroke="#155929" stroke-width="15" shape-rendering="crispEdges"/>
</g>
<defs>
<filter id="filter0_d_1896_28028" x="0" y="0.38208" width="1067.37" height="260.618" filterUnits="userSpaceOnUse" color-interpolation-filters="sRGB">
<feFlood flood-opacity="0" result="BackgroundImageFix"/>
<feColorMatrix in="SourceAlpha" type="matrix" values="0 0 0 0 0 0 0 0 0 0 0 0 0 0 0 0 0 0 127 0" result="hardAlpha"/>
<feOffset dy="4"/>
<feGaussianBlur stdDeviation="2"/>
<feComposite in2="hardAlpha" operator="out"/>
<feColorMatrix type="matrix" values="0 0 0 0 0 0 0 0 0 0 0 0 0 0 0 0 0 0 0.25 0"/>
<feBlend mode="normal" in2="BackgroundImageFix" result="effect1_dropShadow_1896_28028"/>
<feBlend mode="normal" in="SourceGraphic" in2="effect1_dropShadow_1896_28028" result="shape"/>
</filter>
</defs>
</svg>
