<svg width="101" height="25" viewBox="0 0 101 25" fill="none" xmlns="http://www.w3.org/2000/svg">
<path d="M16.524 17.052V11.688C16.524 7.836 15.192 7.188 14.004 7.188C12.744 7.188 11.124 7.548 11.124 10.356V17.412C11.124 20.292 12.852 19.968 12.852 22.2C12.852 23.388 11.772 24.072 10.656 24.072C9.324 24.072 8.604 23.964 7.308 23.964C5.94 23.964 4.032 24.072 2.664 24.072C1.584 24.072 0.432 23.388 0.432 22.2C0.432 19.968 2.916 20.292 2.916 17.412V6.828C2.916 3.876 0.54 4.488 0.54 2.472C0.54 0.923999 1.908 0.528 3.24 0.528H6.12C10.908 0.528 10.116 3.264 11.808 3.264C13.176 3.264 14.22 0.491998 19.044 0.491998C23.508 0.491998 24.948 3.84 24.948 7.98V17.412C24.948 20.292 26.856 19.968 26.856 22.2C26.856 23.388 25.92 24.072 24.984 24.072C23.652 24.072 22.86 23.964 20.844 23.964C19.224 23.964 18.324 24.072 17.028 24.072C15.84 24.072 14.868 23.388 14.868 22.2C14.868 19.968 16.524 20.328 16.524 17.052ZM48.1078 10.788V17.412C48.1078 20.292 50.7358 19.968 50.7358 22.2C50.7358 23.82 48.2518 24.108 46.6318 24.108C41.9158 24.108 42.2758 21.84 41.0878 21.84C39.5758 21.84 38.7118 24.108 33.2758 24.108C29.2438 24.108 26.7958 21.264 26.7958 17.196C26.7958 11.364 31.4398 10.176 36.9118 9.888C38.6758 9.816 39.7558 9.276 39.7558 7.332C39.7558 5.82 39.1078 4.308 37.3438 4.308C34.0318 4.308 33.5638 9.456 30.5398 9.456C28.3798 9.456 28.0558 8.016 28.0558 6.144C28.0558 1.212 34.4278 0.239999 38.7478 0.239999C46.4878 0.239999 48.1078 3.948 48.1078 10.788ZM37.9918 19.176C39.3958 19.176 39.9358 17.7 39.9358 15.864C39.9358 14.1 39.3598 13.128 37.9918 13.128C36.5878 13.128 35.5798 14.136 35.5798 15.864C35.5798 17.664 36.5518 19.176 37.9918 19.176ZM62.1307 16.26V17.412C62.1307 20.328 64.7947 19.968 64.7947 22.2C64.7947 23.388 63.6787 24.072 62.5267 24.072C61.1947 24.072 59.6467 23.964 58.2787 23.964C56.9107 23.964 55.2547 24.072 53.8867 24.072C52.8067 24.072 51.6547 23.388 51.6547 22.2C51.6547 19.968 54.3187 20.328 54.3187 17.412V6.828C54.3187 3.876 51.8707 4.488 51.8707 2.472C51.8707 0.923999 53.2027 0.528 54.5347 0.528C55.2547 0.528 56.8027 0.707999 58.1707 0.707999C61.2667 0.707999 64.2907 0.528 67.4227 0.528C70.2667 0.528 74.0107 2.832 74.0107 6.144C74.0107 8.736 73.2187 10.392 70.9507 11.832C71.7427 12.228 74.0467 13.596 74.6227 15.72C74.9467 16.944 75.0187 19.104 75.8467 20.184C76.4227 20.976 77.6827 20.904 77.6827 22.092C77.6827 24.324 74.6227 24.468 73.0027 24.468C63.3907 24.468 67.6747 14.496 63.4627 14.496C62.4187 14.496 62.1307 15.648 62.1307 16.26ZM62.3107 5.172V9.384C62.3107 9.996 62.7067 10.392 63.3187 10.392C64.1107 10.392 65.3347 9.816 65.3347 7.476C65.3347 5.136 64.0387 4.488 63.0667 4.488C62.8147 4.488 62.3107 4.704 62.3107 5.172ZM98.2406 10.788V17.412C98.2406 20.292 100.869 19.968 100.869 22.2C100.869 23.82 98.3846 24.108 96.7646 24.108C92.0486 24.108 92.4086 21.84 91.2206 21.84C89.7086 21.84 88.8446 24.108 83.4086 24.108C79.3766 24.108 76.9286 21.264 76.9286 17.196C76.9286 11.364 81.5726 10.176 87.0446 9.888C88.8086 9.816 89.8886 9.276 89.8886 7.332C89.8886 5.82 89.2406 4.308 87.4766 4.308C84.1646 4.308 83.6966 9.456 80.6726 9.456C78.5126 9.456 78.1886 8.016 78.1886 6.144C78.1886 1.212 84.5606 0.239999 88.8806 0.239999C96.6206 0.239999 98.2406 3.948 98.2406 10.788ZM88.1246 19.176C89.5286 19.176 90.0686 17.7 90.0686 15.864C90.0686 14.1 89.4926 13.128 88.1246 13.128C86.7206 13.128 85.7126 14.136 85.7126 15.864C85.7126 17.664 86.6846 19.176 88.1246 19.176Z" fill="white"/>
</svg>