<?xml version="1.0" ?><svg id="icon" viewBox="0 0 512 512" xmlns="http://www.w3.org/2000/svg"><title/><path d="M91.273,174.8H420.727a0,0,0,0,1,0,0V465.814A22.431,22.431,0,0,1,398.3,488.244H113.7a22.431,22.431,0,0,1-22.431-22.431V174.8A0,0,0,0,1,91.273,174.8Z" style="fill:#ffd176"/><rect height="119.301" style="fill:#f4a53b" width="329.454" x="91.273" y="174.802"/><path d="M127.459,174.8H384.541a0,0,0,0,1,0,0V369.647a30.828,30.828,0,0,1-30.828,30.828H158.286a30.828,30.828,0,0,1-30.828-30.828V174.8A0,0,0,0,1,127.459,174.8Z" style="fill:#3e3959"/><path d="M133.548,23.756h244.9a24.807,24.807,0,0,1,24.807,24.807V81.6a0,0,0,0,1,0,0H108.741a0,0,0,0,1,0,0V48.563A24.807,24.807,0,0,1,133.548,23.756Z" style="fill:#cc3a3a"/><polygon points="403.259 81.602 256 81.602 108.741 81.602 73.588 174.802 256 174.802 438.412 174.802 403.259 81.602" style="fill:#e86363"/><path d="M73.588,174.8h72.965a0,0,0,0,1,0,0v47.97a36.482,36.482,0,0,1-36.482,36.482h0a36.482,36.482,0,0,1-36.482-36.482V174.8a0,0,0,0,1,0,0Z" style="fill:#cc3a3a"/><path d="M146.553,174.8h72.965a0,0,0,0,1,0,0v47.97a36.482,36.482,0,0,1-36.482,36.482h0a36.482,36.482,0,0,1-36.482-36.482V174.8A0,0,0,0,1,146.553,174.8Z" style="fill:#ccc"/><path d="M219.518,174.8h72.965a0,0,0,0,1,0,0v47.97A36.482,36.482,0,0,1,256,259.255h0a36.482,36.482,0,0,1-36.482-36.482V174.8a0,0,0,0,1,0,0Z" style="fill:#cc3a3a"/><path d="M292.482,174.8h72.965a0,0,0,0,1,0,0v47.97a36.482,36.482,0,0,1-36.482,36.482h0a36.482,36.482,0,0,1-36.482-36.482V174.8A0,0,0,0,1,292.482,174.8Z" style="fill:#ccc"/><path d="M365.447,174.8h72.965a0,0,0,0,1,0,0v47.97a36.482,36.482,0,0,1-36.482,36.482h0a36.482,36.482,0,0,1-36.482-36.482V174.8a0,0,0,0,1,0,0Z" style="fill:#cc3a3a"/><polygon points="219.518 174.802 226.787 81.601 165.309 81.601 146.553 174.802 219.518 174.802" style="fill:#fff"/><polygon points="292.482 174.802 285.213 81.601 346.691 81.601 365.447 174.802 292.482 174.802" style="fill:#fff"/></svg>