<?xml version="1.0" ?><svg id="Flat" viewBox="0 0 340 340" xmlns="http://www.w3.org/2000/svg"><title/><path d="M45.046,170.416s-1.564-35.963,39.09-42.738c0,0,8.751-21.2,34.635-29.533a61.285,61.285,0,0,1,42.714,2.043c16.821,7.172,39.615,23.914,50.867,62.932Z" style="fill:#ffd28a"/><path d="M197.62,130.646c-.237,6.71-3.462,13.655-15.836,13.655H53.809a43.864,43.864,0,0,0-8.763,26.115l167.306-7.3A114.634,114.634,0,0,0,197.62,130.646Z" style="fill:#e89f64"/><path d="M240.461,307.044c-5.6-18.706-22.209-28.264-22.209-28.264,15.949-53.366,0-104.893,0-104.893H39.138s-15.949,51.527,0,104.893c0,0-16.612,9.558-22.209,28.264a17.607,17.607,0,0,0,18.066,22.509,70.915,70.915,0,0,0,22.418-5.1,43.225,43.225,0,0,1,30.318-.989c9.488,3.2,23.191,6.25,40.964,6.25s31.476-3.049,40.964-6.25a43.225,43.225,0,0,1,30.318.989,70.915,70.915,0,0,0,22.418,5.1A17.607,17.607,0,0,0,240.461,307.044Z" style="fill:#c18484"/><path d="M39.138,278.78a53.348,53.348,0,0,0-11.447,9.652,39.861,39.861,0,0,0,15.772,9.359,3.593,3.593,0,0,0,3.893-5.594A112.7,112.7,0,0,1,39.138,278.78Z" style="fill:#964d4d"/><path d="M218.252,278.78a58.278,58.278,0,0,1-8.49,12.606,3.6,3.6,0,0,0,3.329,5.95,37.649,37.649,0,0,0,17.425-7.984A53.944,53.944,0,0,0,218.252,278.78Z" style="fill:#964d4d"/><path d="M213.248,210.751a49.876,49.876,0,0,0,11.283-1.265c-1.86-21.313-6.279-35.6-6.279-35.6H39.138s-4.419,14.286-6.279,35.6a49.876,49.876,0,0,0,11.283,1.265c11.338,0,21.974-3.373,28.587-6.026,10.12,6.138,20.306,9.243,30.36,9.243A47.274,47.274,0,0,0,128.7,206.5a47.279,47.279,0,0,0,25.606,7.473c10.054,0,20.24-3.1,30.36-9.243C191.274,207.378,201.909,210.751,213.248,210.751Z" style="fill:#964d4d"/><path d="M315.932,30.654a20.365,20.365,0,1,0-35.117,14.027A19.76,19.76,0,0,1,286.1,58.342V81.357h18.932V58.341a19.837,19.837,0,0,1,5.312-13.687A20.267,20.267,0,0,0,315.932,30.654Z" style="fill:#efb289"/><path d="M315.932,309.346a20.365,20.365,0,1,1-35.117-14.027,19.76,19.76,0,0,0,5.286-13.661V258.643h18.932v23.016a19.837,19.837,0,0,0,5.312,13.687A20.267,20.267,0,0,1,315.932,309.346Z" style="fill:#efb289"/><path d="M233.716,168a31.455,31.455,0,0,0-3.768-4.362,32.64,32.64,0,0,0-22.673-8.761H50.114a32.64,32.64,0,0,0-22.672,8.761A31.388,31.388,0,0,0,23.674,168a19.122,19.122,0,0,0,11.064,29.622c17.89,4.661,39.108-6.554,39.108-6.554,33.8,24.536,54.849,0,54.849,0s21.047,24.536,54.849,0c0,0,21.218,11.215,39.108,6.554A19.122,19.122,0,0,0,233.716,168Z" style="fill:#c18484"/><path d="M128.7,304.52a4,4,0,0,1-4-4V266.852a4,4,0,0,1,8,0V300.52A4,4,0,0,1,128.7,304.52Z" style="fill:#fff"/><path d="M128.7,274.079s-9.3-16.951-33.1-15.436c0,0,1.992,30.254,33.1,25.315,31.11,4.939,33.1-25.315,33.1-25.315C138,257.128,128.7,274.079,128.7,274.079Z" style="fill:#fff"/><path d="M131.768,229.577a20.438,20.438,0,0,0-3.073-1.845,20.405,20.405,0,0,0-3.072,1.845c-15.591,11.033-14.125,34.732,2.519,44.1q.273.153.553.306.281-.153.553-.306C145.892,264.309,147.358,240.61,131.768,229.577Z" style="fill:#fff"/><rect height="18.293" style="fill:#d68265" width="18.933" x="286.101" y="63.063"/><rect height="18.293" style="fill:#d68265" width="18.933" x="286.101" y="258.643"/><rect height="189.904" rx="12.32" style="fill:#efb289" width="56.49" x="267.322" y="75.048"/><path d="M142.642,117.379a4,4,0,1,1,.78-7.931,4.762,4.762,0,0,1,.75.23,4.5,4.5,0,0,1,.69.371,4.1,4.1,0,0,1,.61.5,3.96,3.96,0,0,1-.61,6.149,4.011,4.011,0,0,1-1.44.6A4.129,4.129,0,0,1,142.642,117.379Z" style="fill:#e89f64"/><path d="M132.242,130.169a4.012,4.012,0,1,1,2.82-1.17A4.033,4.033,0,0,1,132.242,130.169Z" style="fill:#e89f64"/><path d="M155.022,130.169a4.033,4.033,0,0,1-2.83-1.17,3.694,3.694,0,0,1-.5-.61,4.542,4.542,0,0,1-.37-.691,3.769,3.769,0,0,1-.22-.75,3.436,3.436,0,0,1-.08-.779,4,4,0,0,1,8,0,4.119,4.119,0,0,1-.08.779,4.047,4.047,0,0,1-.6,1.441,3.605,3.605,0,0,1-.5.61A4.027,4.027,0,0,1,155.022,130.169Z" style="fill:#e89f64"/></svg>