<?xml version="1.0" ?><svg id="Flat" viewBox="0 0 340 340" xmlns="http://www.w3.org/2000/svg"><title/><path d="M156.37,148.694l39.41,35.228L79.191,255.354S119.175,178.633,156.37,148.694Z" style="fill:#54964d"/><path d="M120.5,99.02s-36.847,22.306-50.858,86.157c-11.713,53.382-29.823,73.565-29.823,73.565L147.608,142.458Z" style="fill:#54964d"/><path d="M144.686,246.721A278.929,278.929,0,0,1,223,213.674c-7.529-8.776-16.865-19.2-27.223-29.752-48.913,21.923-102.065,55.294-102.065,55.294,27.8-25.7,53.122-71.964,62.655-90.522-11.182-8.393-22.433-15.243-33.042-19.187,0,0-45.107,90.214-101.932,135.5A20.145,20.145,0,0,0,16.99,291.5c6.058,9.62,15.182,21.452,27.37,30.126a20.034,20.034,0,0,0,23.541-.4c17.043-12.689,52.321-36.811,81.274-42.6,0,0,69.589-18.557,92.785-41.753,0,0-2.922-3.845-8-10.091C190.11,251.4,144.686,246.721,144.686,246.721Z" style="fill:#88d882"/><path d="M186.415,222.927l.335.3.353.279c.191.15.748.58,1.615,1.189A261.934,261.934,0,0,1,223,213.674c-7.529-8.776-16.865-19.2-27.223-29.752-9.663,4.331-19.489,9.108-29.04,13.987A95.649,95.649,0,0,0,186.415,222.927Z" style="fill:#54964d"/><path d="M140.419,176.047c.228.094.463.18.692.272,6.64-11.222,11.921-21.126,15.259-27.625-11.182-8.393-22.433-15.243-33.042-19.187,0,0-4.512,9.022-12.473,22.783A67.166,67.166,0,0,0,140.419,176.047Z" style="fill:#54964d"/><path d="M303.945,119.368s6.841-21.89,2.078-45.539c-5.351-26.568-27.736-46.71-54.819-47.711a56.142,56.142,0,0,0-11.32.718S194.013-4.4,151.306,33.558c0,0-41.139-8.21-59.094,18.8A39.671,39.671,0,0,0,86.8,83.312c2.669,11.391,10.358,26.323,31.717,33.673,1.326,13.987,8.6,37.909,41.35,49.319a49.663,49.663,0,0,1,29.787,28.5c4.031,10.1,12.053,20.7,27.914,25.362a46.388,46.388,0,0,0,22.791,23.519c33.316,15.92,71.54-9.556,71.125-46.478q-.009-.753-.028-1.523S349.025,157.33,303.945,119.368Z" style="fill:#21b0a6"/><path d="M233.957,226.78A152.07,152.07,0,0,1,206.5,238.744a59.936,59.936,0,0,0,14.143,12.884c8.567-4.581,16.111-9.551,21.317-14.757C241.96,236.871,239.038,233.026,233.957,226.78Z" style="fill:#54964d"/><path d="M170.62,246.222a141.872,141.872,0,0,1-25.934.5s-14.781,7.453-33.1,18.9c-2.746,1.716-.409,5.717,2.51,4.313,18.562-8.929,42.276-18.308,56.54-23.715Z" style="fill:#54964d"/><path d="M162.641,105.577a4.065,4.065,0,0,1-2.83-1.17,4.919,4.919,0,0,1-.5-.61,4.524,4.524,0,0,1-.36-.69,4.053,4.053,0,0,1-.23-.75,4.129,4.129,0,0,1-.08-.78,4.047,4.047,0,0,1,.08-.78,3.832,3.832,0,0,1,.23-.75,4.1,4.1,0,0,1,.36-.69,4.279,4.279,0,0,1,.5-.61,4.01,4.01,0,0,1,3.61-1.09,3.809,3.809,0,0,1,.75.22,4.579,4.579,0,0,1,.69.37,4.919,4.919,0,0,1,.61.5,3.639,3.639,0,0,1,.49.61,3.519,3.519,0,0,1,.37.69,3.832,3.832,0,0,1,.23.75,4.047,4.047,0,0,1,.08.78,4.129,4.129,0,0,1-.08.78,4.053,4.053,0,0,1-.23.75,3.828,3.828,0,0,1-.37.69,3.607,3.607,0,0,1-1.1,1.1,4.033,4.033,0,0,1-1.44.6A4.129,4.129,0,0,1,162.641,105.577Z" style="fill:#26786a"/><path d="M225.3,188.367a4.129,4.129,0,0,1-.78-.08,4.053,4.053,0,0,1-.75-.23,3.828,3.828,0,0,1-.69-.37,3.605,3.605,0,0,1-.61-.5,4,4,0,0,1,0-5.65,4.161,4.161,0,0,1,.61-.5,4.579,4.579,0,0,1,.69-.37,4.99,4.99,0,0,1,.75-.23,4.043,4.043,0,0,1,3.61,1.1,4.005,4.005,0,0,1-2.83,6.83Z" style="fill:#26786a"/><path d="M247.491,179.217a4.047,4.047,0,0,1-.78-.08,3.832,3.832,0,0,1-.75-.23,3.256,3.256,0,0,1-.69-.37,3.639,3.639,0,0,1-.61-.49,4.008,4.008,0,0,1,0-5.66,4.279,4.279,0,0,1,.61-.5,3.75,3.75,0,0,1,.69-.36,3.832,3.832,0,0,1,.75-.23,3.728,3.728,0,0,1,1.56,0,4.053,4.053,0,0,1,.75.23,4.524,4.524,0,0,1,.69.36,4.188,4.188,0,0,1,.6.5,4,4,0,0,1-2.82,6.83Z" style="fill:#26786a"/><path d="M243.6,200.717a4.047,4.047,0,0,1-.78-.08,3.832,3.832,0,0,1-.75-.23,3.519,3.519,0,0,1-.69-.37,3.251,3.251,0,0,1-.61-.5,4.82,4.82,0,0,1-.5-.6,4.524,4.524,0,0,1-.36-.69,4.3,4.3,0,0,1-.23-.75,4.129,4.129,0,0,1-.08-.78,4.234,4.234,0,0,1,.08-.79,3.956,3.956,0,0,1,.23-.74,3.75,3.75,0,0,1,.36-.69,4.279,4.279,0,0,1,.5-.61,3.694,3.694,0,0,1,.61-.5,4.143,4.143,0,0,1,.69-.37,4.659,4.659,0,0,1,.75-.23,4,4,0,1,1,.78,7.93Z" style="fill:#26786a"/><path d="M299.631,158.857a3.995,3.995,0,0,1-4-4,4.129,4.129,0,0,1,.08-.78,4.3,4.3,0,0,1,.23-.75,4.524,4.524,0,0,1,.36-.69,4.82,4.82,0,0,1,.5-.6,3.605,3.605,0,0,1,.61-.5,4.033,4.033,0,0,1,1.44-.6,4.043,4.043,0,0,1,3.61,1.1,4.82,4.82,0,0,1,.5.6,4.524,4.524,0,0,1,.36.69,4.3,4.3,0,0,1,.23.75,4.129,4.129,0,0,1,.08.78,3.995,3.995,0,0,1-4,4Z" style="fill:#26786a"/><path d="M250.461,80.187a3.995,3.995,0,0,1-4-4,4.129,4.129,0,0,1,.08-.78,3.832,3.832,0,0,1,.23-.75,4.524,4.524,0,0,1,.36-.69,4.919,4.919,0,0,1,.5-.61,4.037,4.037,0,0,1,3.61-1.09,4.033,4.033,0,0,1,1.44.6,3.607,3.607,0,0,1,1.1,1.1,4.033,4.033,0,0,1,.6,1.44,4.129,4.129,0,0,1,.08.78,4.047,4.047,0,0,1-1.17,2.83,4.919,4.919,0,0,1-.61.5,4.579,4.579,0,0,1-.69.37,3.809,3.809,0,0,1-.75.22A3.445,3.445,0,0,1,250.461,80.187Z" style="fill:#26786a"/><path d="M265.781,62.577a4,4,0,1,1,2.83-6.83,4,4,0,0,1-2.83,6.83Z" style="fill:#26786a"/><path d="M245.6,55.027a3.995,3.995,0,0,1-4-4,3.445,3.445,0,0,1,.08-.78,4.252,4.252,0,0,1,.22-.75,4.579,4.579,0,0,1,.37-.69,4.82,4.82,0,0,1,.5-.6,3.251,3.251,0,0,1,.61-.5,4.033,4.033,0,0,1,1.44-.6,3.959,3.959,0,0,1,2.31.23,3.828,3.828,0,0,1,.69.37,3.605,3.605,0,0,1,.61.5,4,4,0,0,1-2.83,6.82Z" style="fill:#26786a"/><path d="M112.891,58.687a3.981,3.981,0,0,1-2.82-1.17,3.251,3.251,0,0,1-.5-.61,3.519,3.519,0,0,1-.37-.69,3.956,3.956,0,0,1-.23-.74,4.234,4.234,0,0,1-.08-.79,4,4,0,0,1,8,0,4.219,4.219,0,0,1-.07.79,3.956,3.956,0,0,1-.23.74,4.143,4.143,0,0,1-.37.69,3.694,3.694,0,0,1-.5.61A3.987,3.987,0,0,1,112.891,58.687Z" style="fill:#26786a"/><path d="M240.362,243.689c33.316,15.92,71.54-9.556,71.125-46.478q-.009-.753-.028-1.523s37.566-38.358-7.514-76.32c0,0-5.311,17.229-25.484,26.815a9.7,9.7,0,0,0-4.073,14.39,32.6,32.6,0,0,1,6.011,20.915h0c0,.069-.007.137-.011.2-.9,14.832-9.579,27.975-22.295,35.662-15.39,9.3-29.64,6.451-40.522,2.817.22.468.448.968.678,1.472A46.289,46.289,0,0,0,240.362,243.689Z" style="fill:#26786a"/></svg>