<?xml version="1.0" ?><svg id="icon" viewBox="0 0 512 512" xmlns="http://www.w3.org/2000/svg"><defs><style>.cls-1{fill:#eae0d6;}.cls-2{fill:#bc8b8b;}.cls-3{fill:#c6325c;}.cls-4{fill:#eda52f;}.cls-5{fill:#e24765;}.cls-6{fill:#ffc152;}.cls-7{fill:#70b6e3;}.cls-8{fill:#2a78a0;}.cls-9{fill:#3e3959;}.cls-10{fill:#ce7328;}</style></defs><title/><rect class="cls-1" height="252.83" width="411.14" x="50.43" y="182.44"/><rect class="cls-2" height="49.23" width="411.14" x="50.43" y="182.44"/><rect class="cls-2" height="29.43" width="411.14" x="50.43" y="405.84"/><path class="cls-3" d="M25.2,114.57H91.14a0,0,0,0,1,0,0v64.89a33,33,0,0,1-33,33h0a33,33,0,0,1-33-33V114.57A0,0,0,0,1,25.2,114.57Z"/><path class="cls-4" d="M91.14,114.57h65.94a0,0,0,0,1,0,0v64.89a33,33,0,0,1-33,33h0a33,33,0,0,1-33-33V114.57a0,0,0,0,1,0,0Z"/><path class="cls-5" d="M157.09,114.57H223a0,0,0,0,1,0,0v64.89a33,33,0,0,1-33,33h0a33,33,0,0,1-33-33V114.57a0,0,0,0,1,0,0Z"/><path class="cls-6" d="M223,114.57H289a0,0,0,0,1,0,0v64.89a33,33,0,0,1-33,33h0a33,33,0,0,1-33-33V114.57a0,0,0,0,1,0,0Z"/><path class="cls-5" d="M289,114.57h65.94a0,0,0,0,1,0,0v64.89a33,33,0,0,1-33,33h0a33,33,0,0,1-33-33V114.57A0,0,0,0,1,289,114.57Z"/><path class="cls-6" d="M354.91,114.57h65.94a0,0,0,0,1,0,0v64.89a33,33,0,0,1-33,33h0a33,33,0,0,1-33-33V114.57A0,0,0,0,1,354.91,114.57Z"/><path class="cls-5" d="M420.86,114.57H486.8a0,0,0,0,1,0,0v64.89a33,33,0,0,1-33,33h0a33,33,0,0,1-33-33V114.57A0,0,0,0,1,420.86,114.57Z"/><rect class="cls-7" height="168.23" width="310.58" x="100.31" y="267.44"/><rect class="cls-8" height="29.43" width="310.58" x="100.31" y="405.84"/><rect class="cls-9" height="168.23" width="103.53" x="203.84" y="267.44"/><path class="cls-3" d="M190.06,212.43h0a33,33,0,0,0,33-33V158l-43.39-43.38H157.09v64.89A33,33,0,0,0,190.06,212.43Z"/><path class="cls-4" d="M256,212.43h0a32.83,32.83,0,0,0,16.86-4.64L223,158v21.51A33,33,0,0,0,256,212.43Z"/><path class="cls-6" d="M45.48,76.33h421A20.28,20.28,0,0,1,486.8,96.61V116a0,0,0,0,1,0,0H25.2a0,0,0,0,1,0,0V96.61A20.28,20.28,0,0,1,45.48,76.33Z"/><path class="cls-4" d="M235.88,76.33H45.48A20.28,20.28,0,0,0,25.2,96.61V116H279.89Z"/><rect class="cls-10" height="18.45" width="461.6" x="25.2" y="98.5"/></svg>