<svg width="1125" height="288" viewBox="0 0 1125 288" fill="none" xmlns="http://www.w3.org/2000/svg">
<path d="M1095.96 119.127C1119.43 149.888 1121.85 184.699 1109.27 213.013C1096.66 241.39 1068.7 263.844 1030.15 269.013C934.79 281.8 789.719 280.91 639.003 279.987C599.394 279.744 559.395 279.499 519.806 279.499C376.778 279.499 247.541 265.04 154.279 241.791C107.59 230.153 70.338 216.413 44.9393 201.444C19.8694 186.669 8.54713 172.055 7.84167 158.819C20.2225 127.371 36.9036 103.936 57.8261 86.3642C79.0875 68.5073 105.099 56.3943 136.266 48.3093C198.973 32.0428 281.11 32.3756 384.55 33.9931C470.014 35.3296 555.399 26.0428 639.835 16.8592C644.709 16.3291 649.58 15.7993 654.447 15.2719C925.595 -14.1053 1044.49 51.7007 1095.96 119.127Z" stroke="#155929" stroke-width="15"/>
</svg>
