<?xml version="1.0" ?><svg id="Flat" viewBox="0 0 340 340" xmlns="http://www.w3.org/2000/svg"><title/><path d="M68.062,76.438l50.288,65.925a28.318,28.318,0,0,1,5.8,17.176v6.613a45.145,45.145,0,0,0,13.222,31.922l13.192,13.192a15.593,15.593,0,0,0,20.781,1.138l21.557-17.29a15.592,15.592,0,0,0,1.9-22.522l-11.689-13.151a45.139,45.139,0,0,0-23.326-13.936l-13.384-3.174a28.328,28.328,0,0,1-15.621-9.917L77.96,66.068Z" style="fill:#e2e3e8"/><path d="M29,17.511h0a11.9,11.9,0,0,1,17.375,1.047l35.018,42.41a12.162,12.162,0,0,1-1.045,16.6h0a12.162,12.162,0,0,1-17.786-1.2L27.95,33.624A11.9,11.9,0,0,1,29,17.511Z" style="fill:#434e5b"/><path d="M319.759,217.086c5.058,2.162,10.583,7.525,10.583,20.574,0,13.962-7.492,36.478-15.339,49.751L182.424,261.27s36.4,2.717,63.571-14.126c0,0,11.953-7.15,17.386,4.032,0,0,3.26-23.685,26.08-14.13,0,0-.592-12.873,17.431-19.938A17.013,17.013,0,0,1,319.759,217.086Z" style="fill:#ffd28a"/><rect height="26.78" rx="7.051" style="fill:#e89f64" transform="translate(-29.952 49.943) rotate(-8.973)" width="14.103" x="296.226" y="202.443"/><rect height="26.78" rx="7.051" style="fill:#ffd28a" transform="matrix(0.538, -0.843, 0.843, 0.538, 2.896, 337.908)" width="14.103" x="302.574" y="152.922"/><rect height="26.78" rx="7.051" style="fill:#e89f64" transform="translate(137.923 -96.536) rotate(30)" width="14.103" x="242.048" y="195.71"/><path d="M251.881,164.284a4,4,0,1,1,0-8,4,4,0,0,1,0,8Z" style="fill:#e89f64"/><path d="M286.961,110.5a4,4,0,0,1-2.83-1.179,3.627,3.627,0,0,1-.5-.6,4.618,4.618,0,0,1-.37-.689,4.041,4.041,0,0,1-.22-.75,3.459,3.459,0,0,1-.08-.781,3.387,3.387,0,0,1,.08-.78,3.849,3.849,0,0,1,.22-.75,4.094,4.094,0,0,1,.37-.689,3.613,3.613,0,0,1,.5-.61,4.038,4.038,0,0,1,3.61-1.1,4.877,4.877,0,0,1,.75.23,4.579,4.579,0,0,1,.69.37,4.1,4.1,0,0,1,.61.5,3.56,3.56,0,0,1,.49.61,3.483,3.483,0,0,1,.37.689,3.875,3.875,0,0,1,.23.75,4.047,4.047,0,0,1,.08.78,4.148,4.148,0,0,1-.08.781,4.076,4.076,0,0,1-.23.75,3.854,3.854,0,0,1-.37.689,3.572,3.572,0,0,1-.49.6,3.7,3.7,0,0,1-.61.5,3.892,3.892,0,0,1-.69.37,3.995,3.995,0,0,1-1.53.309Z" style="fill:#ffd28a"/><path d="M203.911,235.324a4.035,4.035,0,0,1-.78-.071,4.055,4.055,0,0,1-1.44-.6,4.226,4.226,0,0,1-.61-.5,3.688,3.688,0,0,1-.49-.611,3.491,3.491,0,0,1-.37-.69,3.791,3.791,0,0,1-.23-.75,4.045,4.045,0,0,1-.08-.779,4.14,4.14,0,0,1,.08-.781,4.076,4.076,0,0,1,.23-.75,3.9,3.9,0,0,1,.37-.69,4.145,4.145,0,0,1,.49-.61,4.093,4.093,0,0,1,.61-.49,4.055,4.055,0,0,1,1.44-.6,4.093,4.093,0,0,1,1.56,0,4.055,4.055,0,0,1,1.44.6,4.093,4.093,0,0,1,.61.49,4.994,4.994,0,0,1,.5.61,4.678,4.678,0,0,1,.37.69,4.041,4.041,0,0,1,.22.75,3.453,3.453,0,0,1,.08.781,3.384,3.384,0,0,1-.08.779,3.769,3.769,0,0,1-.22.75,4.1,4.1,0,0,1-.37.69,4.345,4.345,0,0,1-.5.611,4.226,4.226,0,0,1-.61.5,4.055,4.055,0,0,1-1.44.6A4.035,4.035,0,0,1,203.911,235.324Z" style="fill:#ffd28a"/><path d="M287.968,245.8a4,4,0,0,1-3.477-2.017c-2.463-4.313-2.534-10.766-2.534-11.487a4,4,0,0,1,8-.007h0c.007,1.919.414,5.658,1.481,7.527a4,4,0,0,1-3.47,5.984Zm1.989-13.5h0Z" style="fill:#e89f64"/><path d="M278.481,262.574a4,4,0,0,1-2.82-6.831,4.049,4.049,0,0,1,1.3-.87,4.87,4.87,0,0,1,.74-.23,4.146,4.146,0,0,1,1.57,0,4.87,4.87,0,0,1,.74.23,4.241,4.241,0,0,1,.7.37,4.145,4.145,0,0,1,.6.5,4.006,4.006,0,0,1-2.83,6.831Z" style="fill:#e89f64"/><path d="M303.281,268.543a4.127,4.127,0,0,1-.78-.079,3.9,3.9,0,0,1-.75-.231,3.515,3.515,0,0,1-.69-.369,3.645,3.645,0,0,1-.61-.491,4.006,4.006,0,0,1,0-5.659,4.279,4.279,0,0,1,.61-.5,4.143,4.143,0,0,1,.69-.37,3.811,3.811,0,0,1,.75-.221,4.019,4.019,0,0,1,3.61,1.091,3.967,3.967,0,0,1-.61,6.15,3.823,3.823,0,0,1-.69.369,4.134,4.134,0,0,1-.75.231A4.212,4.212,0,0,1,303.281,268.543Z" style="fill:#ffd28a"/><path d="M315,248.284a3.446,3.446,0,0,1-.78-.081,3.944,3.944,0,0,1-.75-.22,4.574,4.574,0,0,1-.69-.369,4.161,4.161,0,0,1-.61-.5,3.688,3.688,0,0,1-.49-.611,3.491,3.491,0,0,1-.37-.69,3.791,3.791,0,0,1-.23-.75,4.045,4.045,0,0,1-.08-.779,4.131,4.131,0,0,1,.08-.781,4.053,4.053,0,0,1,.23-.75,3.862,3.862,0,0,1,.37-.69,4.145,4.145,0,0,1,.49-.61,4.024,4.024,0,0,1,.61-.489,3.766,3.766,0,0,1,.69-.37,3.906,3.906,0,0,1,.75-.23,4.054,4.054,0,0,1,1.56,0,3.7,3.7,0,0,1,.75.23,3.467,3.467,0,0,1,.69.37,3.584,3.584,0,0,1,.61.489,4.214,4.214,0,0,1,.5.61,4.628,4.628,0,0,1,.37.69,4.019,4.019,0,0,1,.22.75,3.447,3.447,0,0,1,.08.781,3.384,3.384,0,0,1-.08.779,3.769,3.769,0,0,1-.22.75,4.1,4.1,0,0,1-.37.69,3.744,3.744,0,0,1-.5.611,3.694,3.694,0,0,1-.61.5,4.139,4.139,0,0,1-.69.369,3.742,3.742,0,0,1-.75.22A3.388,3.388,0,0,1,315,248.284Z" style="fill:#e89f64"/><polygon points="71.849 204.701 108.314 237.046 121.994 281.405 50.601 211.458 71.849 204.701" style="fill:#e2e3e8"/><path d="M12.711,164.589h0a12.492,12.492,0,0,1,18.261-.662L71.849,204.7a12.768,12.768,0,0,1,.587,17.454h0a12.768,12.768,0,0,1-18.707.539L13.244,181.532A12.492,12.492,0,0,1,12.711,164.589Z" style="fill:#434e5b"/><path d="M315,287.411c7.573-12.81,14.8-34.206,15.291-48.236-7.664,13.984-27.384,35.339-74.413,25.369l-32.565-7.73a133.656,133.656,0,0,1-40.892,4.456Z" style="fill:#e89f64"/><path d="M108.314,237.046,315,287.411s-10.577,18.2-24.928,32.543a20.029,20.029,0,0,1-18.62,5.3L130.2,292.97a20,20,0,0,1-14.157-12.061C112.5,271.984,108.314,257.18,108.314,237.046Z" style="fill:#e2e3e8"/><path d="M180.922,180.9a3.991,3.991,0,0,1-2.945-1.292l-11.344-12.334a4,4,0,0,1,5.888-5.416l11.344,12.334a4,4,0,0,1-2.943,6.708Z" style="fill:#434e5b"/><path d="M169.508,191.065a3.987,3.987,0,0,1-2.945-1.292L155.219,177.44a4,4,0,1,1,5.888-5.416l11.344,12.333a4,4,0,0,1-2.943,6.708Z" style="fill:#434e5b"/><path d="M157.629,201.232a3.991,3.991,0,0,1-2.945-1.292L143.34,187.607a4,4,0,1,1,5.888-5.416l11.344,12.333a4,4,0,0,1-2.943,6.708Z" style="fill:#434e5b"/></svg>