<?xml version="1.0" ?><svg id="flat" viewBox="0 0 340 340" xmlns="http://www.w3.org/2000/svg"><title/><path d="M33.345,253.263A160.1,160.1,0,0,1,40.558,75.935l175.536-59.2a159.237,159.237,0,0,1,40.828,18.909c22.452,25.316,41.921,50.482,52.736,75.213,6.189,52.277-47.31,128.194-93.489,201.211C138.454,312.128,75.166,295.276,33.345,253.263Z" style="fill:#90b4ff"/><path d="M256.918,35.654A160.006,160.006,0,0,1,33.348,253.261a160.775,160.775,0,0,0,29.5,35.556l62.616,34.9a160.4,160.4,0,0,0,133.01-20.384c57.034-64.8,68.54-141.338,40.472-228.073A160.918,160.918,0,0,0,256.918,35.654Z" style="fill:#6d98fc"/><circle cx="111.96" cy="125.952" r="58.255" style="fill:#9cc3ff"/><path d="M170,10A159.772,159.772,0,0,0,40.567,75.941C42.819,89.483,49,106.09,64.819,117.7a16.961,16.961,0,0,1,6.811,13.7v21.073a63.371,63.371,0,0,1-3.8,21.632c-2.14,5.9-4.888,13.462-7.449,20.494a22.261,22.261,0,0,0,4.05,22.066c6.134,7.193,13.087,18.308,12.557,31.33a32.654,32.654,0,0,1-4.737,15.281c-3.016,5.079-8.3,15.23-9.4,25.533l64.016,35.3c9.783-2.97,20.02-9.914,24.42-25.454a28.944,28.944,0,0,1,11.177-15.522,52.832,52.832,0,0,0,18.207-22.83,30.583,30.583,0,0,0-6.842-33.468,85.069,85.069,0,0,0-17.675-13.287,35.724,35.724,0,0,1-15.946-18.98c-2.179-6.069-5.789-12.921-11.667-17.265,0,0-8-5.578-13.179-12.838a12.811,12.811,0,0,0-11.04-5.386l-4.328.211a9.825,9.825,0,0,1-10.3-9.813V133.928a29.328,29.328,0,0,1,4.518-15.64h0a7.842,7.842,0,0,0-1.281-9.869c-4.626-4.407-10.3-12.08-9.091-22.524a16.022,16.022,0,0,1,21.791-12.967c6.315,2.4,12.669,8.7,16.42,19.576a6.388,6.388,0,0,0,10.929,2.068c.832-.992,1.657-2,2.438-2.972a11.614,11.614,0,0,0,1.244-12.414c-1.914-3.868-3.392-9.5-.411-15.305a17.784,17.784,0,0,1,10.485-8.66A57.724,57.724,0,0,1,178.61,54.13a21.488,21.488,0,0,0,21.723-6.439,70.985,70.985,0,0,0,15.836-30.917A159.987,159.987,0,0,0,170,10Z" style="fill:#dcf0ff"/><path d="M128.538,177.305s-8-5.578-13.179-12.838a12.811,12.811,0,0,0-11.04-5.386l-4.328.211a9.825,9.825,0,0,1-10.3-9.813V133.928a29.328,29.328,0,0,1,4.518-15.64h0a7.842,7.842,0,0,0-1.281-9.869c-4.626-4.407-10.3-12.08-9.091-22.524a16.022,16.022,0,0,1,21.791-12.967c6.315,2.4,12.669,8.7,16.42,19.576a6.388,6.388,0,0,0,10.929,2.068c.832-.992,1.657-2,2.438-2.972a11.614,11.614,0,0,0,1.244-12.414,19.777,19.777,0,0,1-2.04-6.918,58.292,58.292,0,0,0-78.6,37.435,57.421,57.421,0,0,0,8.8,8,16.961,16.961,0,0,1,6.811,13.7v21.073a63.394,63.394,0,0,1-1.556,13.938,58.27,58.27,0,0,0,62.1,14.181A25.9,25.9,0,0,0,128.538,177.305Z" style="fill:#ebf9ff"/><path d="M149.063,121.34l3.377,4.186a12.427,12.427,0,0,0,8.519,4.57l6.455.6a9.819,9.819,0,0,1,8.666,11.984,26.883,26.883,0,0,1-6.9,12.985,9.221,9.221,0,0,1-12.762.182,84.232,84.232,0,0,0-14.979-11.083,12.267,12.267,0,0,1-6.032-12.058,60.754,60.754,0,0,1,1.674-8.875A6.873,6.873,0,0,1,149.063,121.34Z" style="fill:#dcf0ff"/><path d="M167.414,130.7l-6.455-.6a12.427,12.427,0,0,1-8.519-4.57l-3.377-4.186a6.873,6.873,0,0,0-11.981,2.492,60.754,60.754,0,0,0-1.674,8.875,12.267,12.267,0,0,0,6.032,12.058,84.28,84.28,0,0,1,14.979,11.083,9.322,9.322,0,0,0,4.148,2.2,57.89,57.89,0,0,0,9.393-26.759A9.807,9.807,0,0,0,167.414,130.7Z" style="fill:#ebf9ff"/><path d="M296.631,91.754c-2.7,9.022-11.848,19.953-20.027,24.623-6.989,3.991-14.522,11.416-13.671,24.74,0,0,1.189,14.268,16.745,14.367a22.343,22.343,0,0,1,18.483,9.494c4.052,5.95,7.312,14.6,5.668,26.353,0,0-1.553,11.907-11.389,11.389,0,0-7.513-2.824-8.925-14.3a16.314,16.314,0,0,0-10.049-13.314l-.248-.1a34.438,34.438,0,0,0-38.987,9.791q-.562.675-1.117,1.384c-11.337,14.493-13.679,34.01-7.094,51.192a56.466,56.466,0,0,0,3.783,8.014,17.553,17.553,0,0,0,17.145,8.766c6.073-.724,13.806,1.239,15.943,14.828,0,0,3.279,18.147-4.424,34.345C311.7,236.436,330.642,161.668,298.94,75.265A51.9,51.9,0,0,1,296.631,91.754Z" style="fill:#dcf0ff"/><path d="M151.284,298.657a28.944,28.944,0,0,1,11.177-15.522,53.534,53.534,0,0,0,13.654-14.2,160.5,160.5,0,0,1-107.63,1.424,59.24,59.24,0,0,0-5.637,18.461,159.7,159.7,0,0,0,64.016,35.3C136.647,321.141,146.884,314.2,151.284,298.657Z" style="fill:#a9caff"/><path d="M296.631,91.754c-2.312,7.712-9.329,16.806-16.427,22.206.051,1.657.086,3.318.086,4.988a160.483,160.483,0,0,1-4.123,36.237,22.034,22.034,0,0,0,3.511.3,22.343,22.343,0,0,1,18.483,9.494c4.052,5.95,7.312,14.6,5.668,26.353,0,0-1.553,11.907-11.389,11.389,0,0-7.513-2.824-8.925-14.3a16.314,16.314,0,0,0-10.049-13.314l-.248-.1q-1.329-.521-2.683-.924A160.252,160.252,0,0,1,226.51,238.59a55.449,55.449,0,0,0,3.293,6.8,17.553,17.553,0,0,0,17.145,8.766c6.073-.724,13.806,1.239,15.943,14.828,0,0,3.279,18.147-4.424,34.345A160.012,160.012,0,0,0,298.94,75.265,51.9,51.9,0,0,1,296.631,91.754Z" style="fill:#a9caff"/></svg>