<?xml version="1.0" ?><svg id="Flat" viewBox="0 0 340 340" xmlns="http://www.w3.org/2000/svg"><title/><path d="M159.747,199.4c-3.6,0-6.51-1.792-6.51-4V166.4c0-2.209,2.915-4,6.51-4s6.509,1.791,6.509,4V195.4C166.256,197.6,163.342,199.4,159.747,199.4Z" style="fill:#b3bec6"/><rect height="17.38" rx="8.69" style="fill:#cbd2d8" width="43.29" x="138.102" y="153.809"/><path d="M155.212,187.429h9.07A123.826,123.826,0,0,1,288.108,311.255v0a0,0,0,0,1,0,0H31.386a0,0,0,0,1,0,0v0A123.826,123.826,0,0,1,155.212,187.429Z" style="fill:#cbd2d8"/><path d="M251.882,12a70.056,70.056,0,0,0-34.706,130.915l-2.044,26.573,22.932-18.733A70.065,70.065,0,1,0,251.882,12Z" style="fill:#fff"/><path d="M210.427,178.5,213,145.083a73.844,73.844,0,1,1,26.157,9.944ZM251.882,16a66.055,66.055,0,0,0-32.72,123.442l2.2,1.256-1.522,19.781L237,146.462l1.852.371A66.065,66.065,0,1,0,251.882,16Z" style="fill:#88d882"/><path d="M288.108,311.255a123.84,123.84,0,0,0-72.027-112.5c-2.4,26.6-22.248,120.843-183.843,97.978a124.916,124.916,0,0,0-.852,14.518H288.108Z" style="fill:#b3bec6"/><rect height="20.745" rx="10.373" style="fill:#f78a4d" width="291.382" x="14.056" y="311.255"/><path d="M122.175,210.482c-19.279,5.993-35.369,19.623-46.978,36.06A8.815,8.815,0,0,0,78.148,259.3h0a8.813,8.813,0,0,0,11.582-2.718c5.931-8.724,18.3-23.3,37.5-28.812a8.878,8.878,0,0,0,6.487-8.51v-.371A8.854,8.854,0,0,0,122.175,210.482Z" style="fill:#fff"/><path d="M174.808,216.282h0a9.478,9.478,0,0,0-9.219-10.88q-1.089-.022-2.184-.023h-.733a9.454,9.454,0,0,0-9.435,9.451v.021a9.443,9.443,0,0,0,9.54,9.448c.817-.008,1.666-.007,2.537,0A9.462,9.462,0,0,0,174.808,216.282Z" style="fill:#fff"/><path d="M299.094,72.288c-2.965-9.564-11.385-10.254-11.385-10.254A24.057,24.057,0,0,0,271.762,48.51a22.013,22.013,0,0,0-13.875.641,17.433,17.433,0,0,0-11,13.4c-6.312-3.4-11.483-2.121-15.192.189a15.451,15.451,0,0,0-7,11.1,75.511,75.511,0,0,1-2.928,13.026,1.737,1.737,0,0,0,2.443,2.086,167.173,167.173,0,0,1,22.884-9.528,12.713,12.713,0,0,0,2.859-1.316,13.251,13.251,0,0,0,2.011-1.6,18.53,18.53,0,0,0,4.662-7.4,46.827,46.827,0,0,0,1.784-7.149,1.268,1.268,0,0,1,2.477-.086,28.6,28.6,0,0,1,.3,12.866c-.06.237-.133.467-.2.7,6.165-2.1,13.377-1.842,18.369-1.244a1.066,1.066,0,0,1,.084,2.1c-7.112,1.446-19.167,4.554-28.657,10.348-.124.05-.249.1-.375.148a26.785,26.785,0,0,1,9.3,3.828,1.254,1.254,0,0,1-1,2.257,43.124,43.124,0,0,0-26.5,1.111l-.085.037c-4.881,2.3-23.473,13.64-23.473,13.64a4.577,4.577,0,0,0-.713,7.144,4.742,4.742,0,0,0,5.641.576l5.966-3.422a26.522,26.522,0,0,1,20.99-2.268c31.416,9.625,37.364-10.976,37.364-10.976,10.7-.868,16.386-6.594,19.315-11.467A18.413,18.413,0,0,0,299.094,72.288Z" style="fill:#88d882"/></svg>