<?xml version="1.0" ?><svg id="Flat" viewBox="0 0 340 340" xmlns="http://www.w3.org/2000/svg"><title/><path d="M311.639,74.4C294.506,53.647,266.67,43.873,240.62,50.613,191.892,63.22,170,101.039,170,101.039S149.542,63.5,99.381,50.613C73.252,43.9,45.359,53.7,28.238,74.545c-9.386,11.43-16.577,27.5-16.688,49.922a107.036,107.036,0,0,0,13.129,51.121c13.082,24.318,38.539,59.771,90.539,83.712,11.828,5.446,23.672,10.893,34.107,18.683a89.8,89.8,0,0,1,10.377,9.19,14.409,14.409,0,0,0,20.582.007,89.537,89.537,0,0,1,10.391-9.2c10.435-7.79,22.441-12.9,34.108-18.683,52.594-26.076,77.513-59.493,90.575-83.781a106.879,106.879,0,0,0,13.09-51.414C328.261,101.772,321.035,85.774,311.639,74.4Z" style="fill:#88d882"/><path d="M238.943,148c-6.037-12.211-17.576-11.6-17.576-11.6a33.93,33.93,0,0,0-24.843-15.881,31.044,31.044,0,0,0-19.269,3.521A24.581,24.581,0,0,0,164.42,144.85c-9.592-3.6-16.638-.715-21.387,3.3a21.8,21.8,0,0,0-7.5,16.712,105.448,105.448,0,0,1-2.056,20.978,2.179,2.179,0,0,0,3.388,2.233,233.785,233.785,0,0,1,33-19.324,18.792,18.792,0,0,0,8.424-10.956c1.213-4.649,2.3-8.208,4.31-11.724a1.869,1.869,0,0,1,3.47.833,56.423,56.423,0,0,1-.555,12.141,23.812,23.812,0,0,1-.564,3.073,140.613,140.613,0,0,1,16.8-5.21,2.029,2.029,0,0,1,1.37,3.792c-8.631,4.29-20.214,10.323-29.282,16.045-.537.306-1.084.6-1.65.867l-1.79.846c.518.1,1.035.218,1.55.346a60.639,60.639,0,0,1,15.211,7.518,1.152,1.152,0,0,1-.789,2.105l-12.321-1.738a44.436,44.436,0,0,0-8.4-.423c-5.715.285-11.7,1.425-16.394,4.266-5.983,3.862-11.076,7.559-15.294,10.846l-.013,0-.162.134c-.489.383-.974.763-1.44,1.134l.054.021L118.27,214.43c-1.768,1.471-1.123,4.276-.254,6.4a4.726,4.726,0,0,0,7.468,1.857l.05-.046,6.037-4.7a35,35,0,0,1,28.474-6.8c49.861,10.225,54.545-21.6,54.545-21.6,14.826-3.246,21.681-12.356,24.843-19.729A26.083,26.083,0,0,0,238.943,148Z" style="fill:#fff"/></svg>