<?xml version="1.0" ?><svg id="Flat" viewBox="0 0 340 340" xmlns="http://www.w3.org/2000/svg"><title/><path d="M36.168,256.649a20.575,20.575,0,0,1-15.26-6.629q-.444-.488-.878-1.015a4,4,0,0,1,6.185-5.075q.3.363.6.7a13.04,13.04,0,0,0,17.544,1.215l16.943-12.865a4,4,0,0,1,4.838,6.371L49.231,252.191A21.311,21.311,0,0,1,36.168,256.649Z" style="fill:#f7bd61"/><path d="M37.188,284.222a4,4,0,0,1-2.548-7.085l35.027-28.9a4,4,0,0,1,5.091,6.171l-35.027,28.9A3.982,3.982,0,0,1,37.188,284.222Z" style="fill:#f7bd61"/><path d="M53.045,312.119a4,4,0,0,1-4-4v-6.507a22.434,22.434,0,0,1,6.972-16.218l26.609-26.8a4,4,0,1,1,5.678,5.636L61.65,291.075q-.048.048-.1.093a14.408,14.408,0,0,0-4.509,10.444v6.507A4,4,0,0,1,53.045,312.119Z" style="fill:#f7bd61"/><path d="M82.344,319.116a4,4,0,0,1-3.525-2.1c-4.478-8.31-5.6-16.332-3.345-23.843,3.619-12.038,14.706-18.1,15.176-18.355a4,4,0,0,1,3.793,7.044,28,28,0,0,0-8.747,8.229c-4.5,6.789-4.447,14.571.166,23.13a4,4,0,0,1-3.518,5.9Z" style="fill:#f7bd61"/><path d="M259.555,39l6.866-5.59a9.055,9.055,0,0,1,14.716,8.033l-1.706,15.2a8.314,8.314,0,0,0,8.263,9.243h0a8.315,8.315,0,0,1,7.387,12.133l-1.562,3.021a32.277,32.277,0,0,0-2.287,23.97A450.251,450.251,0,0,0,309.7,155.3s37.568,88.215-25.046,142.448c0,0-57.493,50.6-147.608-6.647a37.423,37.423,0,0,0-16.253-5.606,104.418,104.418,0,0,0-23.765.369,15.773,15.773,0,0,1-14.352-5.887l-23.62-29.883A22.446,22.446,0,0,1,54.2,236.5c-.155-11.016-2.07-32.773-13.411-52.178a111.7,111.7,0,0,1-9.433-20.156C22.532,138.376,11.339,84.145,54.026,45.17c0,0,50.091-45.917,130.446-11.479A189.262,189.262,0,0,0,230.908,46.96,37.087,37.087,0,0,0,259.555,39Z" style="fill:#b54560"/><path d="M41.189,132.445c-.079,0-.158,0-.237-.007a4,4,0,0,1-3.76-4.227,106.935,106.935,0,0,1,12.119-40.1C59.4,69.187,80,45.546,120.859,40.379a4,4,0,1,1,1,7.937c-30.08,3.8-52.114,18.458-65.491,43.556a100.12,100.12,0,0,0-11.193,36.806A4,4,0,0,1,41.189,132.445Z" style="fill:#7c2452"/><path d="M108.444,83.9a4,4,0,0,1-2.258-7.3c16.6-11.335,37.34-18.969,61.628-22.692.06-.01,7.859-1.26,12.576-3.225a4,4,0,1,1,3.076,7.385C177.86,60.4,169.4,61.75,169.045,61.806,145.93,65.349,126.3,72.547,110.7,83.2A3.977,3.977,0,0,1,108.444,83.9Z" style="fill:#7c2452"/><path d="M92.2,97.558a4,4,0,0,1-2.879-6.777l.708-.725a4,4,0,0,1,5.7,5.608l-.654.671A3.989,3.989,0,0,1,92.2,97.558Z" style="fill:#7c2452"/><path d="M62.53,186.474a4,4,0,0,1-3.962-3.494c-.191-1.508-4.465-37.329,15.3-71.646a4,4,0,1,1,6.932,3.993c-18.379,31.911-14.338,66.305-14.3,66.649a4,4,0,0,1-3.469,4.467A4.127,4.127,0,0,1,62.53,186.474Z" style="fill:#7c2452"/><path d="M78.673,220.343a4,4,0,0,1-3.7-5.516c.072-.175,7.258-17.766,14.14-37.154.274-.816,7.406-21.624,24.708-44.667,16.029-21.346,44.144-48.561,87.065-57.021.93-.215,15.559-3.65,22.643-8.9a4,4,0,1,1,4.762,6.428c-8.645,6.4-25,10.129-25.7,10.284-.035.008-.07.016-.1.022C124.915,99.075,96.945,179.479,96.672,180.289c-6.969,19.633-14.224,37.391-14.3,37.568A4,4,0,0,1,78.673,220.343Z" style="fill:#7c2452"/><path d="M174.453,164.543a4,4,0,0,1-2.853-6.8c27.172-27.649,46.6-47.959,57.754-60.366a4,4,0,1,1,5.949,5.347c-11.229,12.5-30.742,32.893-58,60.626A3.984,3.984,0,0,1,174.453,164.543Z" style="fill:#7c2452"/><path d="M156.62,182.618a4,4,0,0,1-2.843-6.814l3.1-3.133a4,4,0,1,1,5.687,5.626l-3.1,3.134A3.986,3.986,0,0,1,156.62,182.618Z" style="fill:#7c2452"/><path d="M96,243.287a4,4,0,0,1-2.815-6.842c.191-.189,19.321-19.14,43.44-43.366a4,4,0,0,1,5.669,5.645c-24.14,24.247-43.288,43.216-43.479,43.405A3.99,3.99,0,0,1,96,243.287Z" style="fill:#7c2452"/><path d="M130.933,261.409a4,4,0,0,1-1.621-7.659c48.759-21.584,79.355-56.012,96.436-81.092,18.076-26.541,25.174-48.318,25.549-49.492a124.462,124.462,0,0,1,14.077-31.8,4,4,0,0,1,6.685,4.393h0a118.456,118.456,0,0,0-13.073,29.621c-.012.039-.022.077-.034.116-.3.948-7.433,23.539-26.592,51.67-17.667,25.942-49.325,61.556-99.81,83.9A3.984,3.984,0,0,1,130.933,261.409Z" style="fill:#7c2452"/><path d="M196.216,271.166a4,4,0,0,1-1.487-7.715c27.643-11.059,74.693-40.22,79.212-111.261a4,4,0,0,1,7.984.507c-4.8,75.429-54.83,106.421-84.225,118.182A3.978,3.978,0,0,1,196.216,271.166Z" style="fill:#7c2452"/><path d="M172,278.34a4,4,0,0,1-.6-7.955c.081-.012.869-.138,2.243-.423a4,4,0,1,1,1.627,7.833c-1.669.346-2.623.493-2.663.5A4.054,4.054,0,0,1,172,278.34Z" style="fill:#7c2452"/><path d="M234.267,290.833a4,4,0,0,1-1.126-7.839,88.92,88.92,0,0,0,27.352-15.23c18.079-14.687,27.826-34.127,28.971-57.78a4,4,0,1,1,7.99.387c-1.575,32.558-18.363,52.669-32.17,63.807a95.218,95.218,0,0,1-29.89,16.493A4,4,0,0,1,234.267,290.833Z" style="fill:#7c2452"/><path d="M295.922,75.341a8.313,8.313,0,0,0-8.228-9.458,8.314,8.314,0,0,1-8.263-9.243l1.706-15.2-9.956,28.1a4.351,4.351,0,0,0,4.966,5.717l9.789-1.984S294.422,70.464,295.922,75.341Z" style="fill:#7c2452"/></svg>