<?xml version="1.0" ?><svg id="Flat" viewBox="0 0 340 340" xmlns="http://www.w3.org/2000/svg"><title/><path d="M194.43,139.371l29-28.648a19.257,19.257,0,0,0,4.992-8.25c.083-.282.164-.573.241-.87a19.5,19.5,0,0,0-11.923-23,30.19,30.19,0,0,1-9.605-5.744c-11.21-10.378-4.354-29.173,10.922-29.406q.2,0,.4,0S208.16,30.27,217.16,19a19.549,19.549,0,0,1,13.317-7.048c6.653-.691,16.4.527,21.063,11.938,0,0,19.362-13.279,25.837,7.647,0,0,22.382,3.477,13.355,30.166,0,0,25.3-2.723,28.469,22.589,0,0,12.974,2.25,10.614,18.37,0,0-3.692,15.624-19.378,13.729,0,0,.019.093.047.265a12.941,12.941,0,0,1-18.736,13.5,24.436,24.436,0,0,1-6.4-4.888,24.609,24.609,0,0,0-18.65-8.025c-5.845.2-13.016,2.071-20.876,7.606a24.8,24.8,0,0,0-3.113,2.6l-32.778,32.257Z" style="fill:#88d882"/><path d="M285.51,70.365a16.43,16.43,0,0,0,14.434-7.974,31.717,31.717,0,0,0-9.212-.687,15.544,15.544,0,0,1-6.065,5.565A1.65,1.65,0,0,0,285.51,70.365Z" style="fill:#54964d"/><path d="M319.2,84.293c4.788,23.616-19.257,23.852-19.257,23.852-1.994,4.225-5.666,4.951-9,4.53a14.5,14.5,0,0,1-9.194-5.029c-.121-.144-.243-.285-.365-.426a25.916,25.916,0,0,0-38.46-.66l-13.889,14.83a12.892,12.892,0,0,1-13.2,3.51l-5.145-1.584L194.43,139.371l15.5,20.34,28.351-27.9h0l4.427-4.356a24.868,24.868,0,0,1,3.107-2.6c7.814-5.5,14.948-7.382,20.774-7.606a23.615,23.615,0,0,1,18.4,7.628,24.518,24.518,0,0,0,6.584,5.183,12.953,12.953,0,0,0,18.92-13.4c-.028-.172-.047-.266-.047-.266,15.686,1.9,19.378-13.729,19.378-13.729C332.175,86.543,319.2,84.293,319.2,84.293Z" style="fill:#54964d"/><path d="M162.91,96.916s27.966-47.026-.525-74.012a46.952,46.952,0,0,0-31.579-12.5C107.368,10,60.3,19.162,50.8,96.916c0,0-3.357,39.271-4.028,62.8,0,0-11.888,8.83-10.22,43.506a47.205,47.205,0,0,1-6.132,25.737L11.188,262.536A9.756,9.756,0,0,0,12.21,273.69h0a9.752,9.752,0,0,0,15.97-1.562,234.915,234.915,0,0,0,12.06-25.959A104.169,104.169,0,0,1,51.5,225.393c10.533-15.061,30.251-36.912,57.394-39.765C108.891,185.628,158.628,165.488,162.91,96.916Z" style="fill:#21b0a6"/><path d="M199.53,137.65a62.632,62.632,0,0,1,9.211,9.441c13.717,17.565,11.962,42.678-3.673,58.56-24.962,25.357-87.862,84.854-146.8,104.993a15.549,15.549,0,0,1-17.934-5.89q-.086-.128-.171-.258A15.628,15.628,0,0,1,38.9,290.049c9.653-23.49,61.262-112.576,117.645-155.662C169.085,124.806,187.426,127.527,199.53,137.65Z" style="fill:#f9744b"/><circle cx="266.429" cy="268.252" r="61.36" style="fill:#88d882"/><polygon points="288.286 239.494 258.524 269.256 246.893 257.625 232.287 272.231 258.524 298.468 302.892 254.1 288.286 239.494" style="fill:#fff"/><path d="M96.656,280.881a4,4,0,0,0-5.9,5.4l5.937,6.486q3.529-2.028,7.031-4.167Z" style="fill:#dd4a22"/><path d="M76.924,271.172a4,4,0,0,0,5.9-5.4L63.641,244.809q-2.254,3.627-4.346,7.1Z" style="fill:#dd4a22"/><path d="M115.544,250.9a3.989,3.989,0,0,1-2.92-1.265L99.318,235.424a4,4,0,1,1,5.839-5.468l13.306,14.205a4,4,0,0,1-2.919,6.734Z" style="fill:#dd4a22"/><path d="M118.634,231.829a4,4,0,1,0,5.854-5.453L96.85,196.7q-2.484,3.237-4.9,6.482Z" style="fill:#dd4a22"/><path d="M170.064,221.974a3.992,3.992,0,0,1-2.917-1.262l-.451-.481a4,4,0,1,1,5.832-5.476l.452.48a4,4,0,0,1-2.916,6.739Z" style="fill:#dd4a22"/><path d="M160.41,211.682a3.992,3.992,0,0,1-2.919-1.263L136.8,188.365a4,4,0,0,1,5.835-5.473l20.688,22.053a4,4,0,0,1-2.916,6.737Z" style="fill:#dd4a22"/><path d="M172.529,188.359a4,4,0,1,0-5.695,5.618l24.692,25.035q3.027-2.906,5.741-5.572Z" style="fill:#dd4a22"/><path d="M139.323,149.046l20.082,19.465a4,4,0,1,0,5.568-5.744l-19.709-19.1Q142.277,146.284,139.323,149.046Z" style="fill:#dd4a22"/><path d="M83.875,153.546c15.677-30.635,29.512-67.524,37.947-91.727a1.939,1.939,0,0,0-3.559-1.518C92.173,111.583,41.233,208.416,31.9,226.133q-.693,1.432-1.485,2.821L11.188,262.536a9.756,9.756,0,1,0,16.992,9.592,234.915,234.915,0,0,0,12.06-25.959,104.366,104.366,0,0,1,5.081-10.785Z" style="fill:#26786a"/><path d="M71.582,165.147a4,4,0,0,1-3.516-5.9l4.507-8.339a52.571,52.571,0,0,0,6.057-30.667L76.355,98.773a4,4,0,1,1,7.955-.844l2.275,21.465a60.541,60.541,0,0,1-6.974,35.315L75.1,163.048A4,4,0,0,1,71.582,165.147Z" style="fill:#26786a"/><path d="M93.516,123.919a4,4,0,0,1-3.553-5.833l3.906-7.579a47.817,47.817,0,0,1,23.04-21.736l18.335-8.134a4,4,0,0,1,3.244,7.313l-18.335,8.133a39.793,39.793,0,0,0-19.173,18.088l-3.905,7.579A4,4,0,0,1,93.516,123.919Z" style="fill:#26786a"/><path d="M50.816,204.623a4,4,0,0,1-3.492-5.944l6.423-11.552a51.079,51.079,0,0,1,25.922-22.672L93.8,158.909a4,4,0,1,1,2.922,7.447L82.591,171.9a43.059,43.059,0,0,0-21.852,19.113l-6.423,11.552A4,4,0,0,1,50.816,204.623Z" style="fill:#26786a"/><path d="M243.779,83.416l-16.06,5.806a19.235,19.235,0,0,1,.944,12.381c-.077.3-.158.588-.241.87a19.257,19.257,0,0,1-4.992,8.25l22.721-23.656A2.235,2.235,0,0,0,243.779,83.416Z" style="fill:#54964d"/><circle cx="254.463" cy="70.365" r="4.897" style="fill:#54964d"/></svg>