<svg width="160" height="70" viewBox="0 0 160 70" fill="none" xmlns="http://www.w3.org/2000/svg">
<path d="M45.524 40.552V35.188C45.524 31.336 44.192 30.688 43.004 30.688C41.744 30.688 40.124 31.048 40.124 33.856V40.912C40.124 43.792 41.852 43.468 41.852 45.7C41.852 46.888 40.772 47.572 39.656 47.572C38.324 47.572 37.604 47.464 36.308 47.464C34.94 47.464 33.032 47.572 31.664 47.572C30.584 47.572 29.432 46.888 29.432 45.7C29.432 43.468 31.916 43.792 31.916 40.912V30.328C31.916 27.376 29.54 27.988 29.54 25.972C29.54 24.424 30.908 24.028 32.24 24.028H35.12C39.908 24.028 39.116 26.764 40.808 26.764C42.176 26.764 43.22 23.992 48.044 23.992C52.508 23.992 53.948 27.34 53.948 31.48V40.912C53.948 43.792 55.856 43.468 55.856 45.7C55.856 46.888 54.92 47.572 53.984 47.572C52.652 47.572 51.86 47.464 49.844 47.464C48.224 47.464 47.324 47.572 46.028 47.572C44.84 47.572 43.868 46.888 43.868 45.7C43.868 43.468 45.524 43.828 45.524 40.552ZM77.1078 34.288V40.912C77.1078 43.792 79.7358 43.468 79.7358 45.7C79.7358 47.32 77.2518 47.608 75.6318 47.608C70.9158 47.608 71.2758 45.34 70.0878 45.34C68.5758 45.34 67.7118 47.608 62.2758 47.608C58.2438 47.608 55.7958 44.764 55.7958 40.696C55.7958 34.864 60.4398 33.676 65.9118 33.388C67.6758 33.316 68.7558 32.776 68.7558 30.832C68.7558 29.32 68.1078 27.808 66.3438 27.808C63.0318 27.808 62.5638 32.956 59.5398 32.956C57.3798 32.956 57.0558 31.516 57.0558 29.644C57.0558 24.712 63.4278 23.74 67.7478 23.74C75.4878 23.74 77.1078 27.448 77.1078 34.288ZM66.9918 42.676C68.3958 42.676 68.9358 41.2 68.9358 39.364C68.9358 37.6 68.3598 36.628 66.9918 36.628C65.5878 36.628 64.5798 37.636 64.5798 39.364C64.5798 41.164 65.5518 42.676 66.9918 42.676ZM91.1307 39.76V40.912C91.1307 43.828 93.7947 43.468 93.7947 45.7C93.7947 46.888 92.6787 47.572 91.5267 47.572C90.1947 47.572 88.6467 47.464 87.2787 47.464C85.9107 47.464 84.2547 47.572 82.8867 47.572C81.8067 47.572 80.6547 46.888 80.6547 45.7C80.6547 43.468 83.3187 43.828 83.3187 40.912V30.328C83.3187 27.376 80.8707 27.988 80.8707 25.972C80.8707 24.424 82.2027 24.028 83.5347 24.028C84.2547 24.028 85.8027 24.208 87.1707 24.208C90.2667 24.208 93.2907 24.028 96.4227 24.028C99.2667 24.028 103.011 26.332 103.011 29.644C103.011 32.236 102.219 33.892 99.9507 35.332C100.743 35.728 103.047 37.096 103.623 39.22C103.947 40.444 104.019 42.604 104.847 43.684C105.423 44.476 106.683 44.404 106.683 45.592C106.683 47.824 103.623 47.968 102.003 47.968C92.3907 47.968 96.6747 37.996 92.4627 37.996C91.4187 37.996 91.1307 39.148 91.1307 39.76ZM91.3107 28.672V32.884C91.3107 33.496 91.7067 33.892 92.3187 33.892C93.1107 33.892 94.3347 33.316 94.3347 30.976C94.3347 28.636 93.0387 27.988 92.0667 27.988C91.8147 27.988 91.3107 28.204 91.3107 28.672ZM127.241 34.288V40.912C127.241 43.792 129.869 43.468 129.869 45.7C129.869 47.32 127.385 47.608 125.765 47.608C121.049 47.608 121.409 45.34 120.221 45.34C118.709 45.34 117.845 47.608 112.409 47.608C108.377 47.608 105.929 44.764 105.929 40.696C105.929 34.864 110.573 33.676 116.045 33.388C117.809 33.316 118.889 32.776 118.889 30.832C118.889 29.32 118.241 27.808 116.477 27.808C113.165 27.808 112.697 32.956 109.673 32.956C107.513 32.956 107.189 31.516 107.189 29.644C107.189 24.712 113.561 23.74 117.881 23.74C125.621 23.74 127.241 27.448 127.241 34.288ZM117.125 42.676C118.529 42.676 119.069 41.2 119.069 39.364C119.069 37.6 118.493 36.628 117.125 36.628C115.721 36.628 114.713 37.636 114.713 39.364C114.713 41.164 115.685 42.676 117.125 42.676Z" fill="white"/>
</svg>
