<?xml version="1.0" ?><svg id="icon" viewBox="0 0 512 512" xmlns="http://www.w3.org/2000/svg"><title/><rect height="44.304" rx="14.946" style="fill:#ffd176" width="464.489" x="23.756" y="191.597"/><path d="M61.531,235.9,97.306,412.782a36.411,36.411,0,0,0,35.688,29.193H379.006a36.411,36.411,0,0,0,35.688-29.193L450.469,235.9Z" style="fill:#ffd176"/><rect height="129.899" rx="14.223" style="fill:#fff" width="28.446" x="241.777" y="273.988"/><rect height="129.899" rx="14.223" style="fill:#fff" transform="translate(-44.707 25.412) rotate(-7.84)" width="28.446" x="148.861" y="273.988"/><rect height="129.899" rx="14.223" style="fill:#fff" transform="translate(648.339 722.3) rotate(-172.16)" width="28.446" x="334.693" y="273.988"/><polygon points="66.175 258.862 445.825 258.862 450.469 235.901 61.531 235.901 66.175 258.862" style="fill:#f4a53b"/><path d="M120.006,191.6l-.812.812a15.7,15.7,0,0,0-2.119,2.645l-9.236,9.46v14.65h10.224A44.3,44.3,0,0,0,149,206.572L164.347,191.6Z" style="fill:#f4a53b"/><path d="M395.548,219.164h10.223v-14.65l-9.236-9.46a15.7,15.7,0,0,0-2.119-2.645l-.812-.812H349.263l15.349,14.975A44.3,44.3,0,0,0,395.548,219.164Z" style="fill:#f4a53b"/><rect height="197.937" rx="15.677" style="fill:#e86363" transform="translate(151.127 -75.656) rotate(45)" width="31.354" x="151.211" y="45.63"/><rect height="197.937" rx="15.677" style="fill:#e86363" transform="translate(691.389 2.814) rotate(135)" width="31.354" x="329.435" y="45.63"/></svg>