<?xml version="1.0" ?><svg id="Flat" viewBox="0 0 340 340" xmlns="http://www.w3.org/2000/svg"><title/><path d="M172,72.337s5.585-26.766-1.91-45.532a22.617,22.617,0,0,0-28.7-12.766c-12.971,4.71-33.479,15.38-50.328,38.749a18.338,18.338,0,0,1-13.332,7.471h0A18.449,18.449,0,0,0,63.8,68.581c-8.837,13.648-24.778,44.753-19.7,85.7,0,0,5.109,52.184,3.718,78.112a35.138,35.138,0,0,1-5.4,16.835L18.373,287.383a6.648,6.648,0,0,0,1.06,8.375h0a6.647,6.647,0,0,0,9.471-.349L53.615,268.36a30.263,30.263,0,0,1,17.908-9.524l16.009-2.372Z" style="fill:#21b0a6"/><path d="M173.219,39.188A242.012,242.012,0,0,0,130.1,75.422l.866-9.7.362-10.3a1.352,1.352,0,0,0-2.676-.317L122.887,83.4a263.016,263.016,0,0,0-28.593,40.225c-.267-.5-.53-1.009-.818-1.5L85.4,108.205l-3.269-5.892a1.579,1.579,0,0,0-2.883,1.253l4.507,13.911a115.243,115.243,0,0,0,4.6,12.19c.407.9.75,1.812,1.067,2.733-3.121,5.871-5.865,11.533-8.255,16.875a183.622,183.622,0,0,0-16.13,71.372l0,.179A48.743,48.743,0,0,1,54.58,249.734l-28.8,36.775s-3.982,3.333-7.987,2.058a6.638,6.638,0,0,0,2.511,7.888,6.8,6.8,0,0,0,8.754-1.216L53.615,268.36a29.988,29.988,0,0,1,6.464-5.328h0c.254-.156.515-.3.773-.451.187-.107.37-.222.559-.325s.4-.207.6-.312c.387-.2.775-.4,1.17-.58.126-.059.253-.116.379-.174a30.6,30.6,0,0,1,3.592-1.35v-.014a29.772,29.772,0,0,1,4.369-.991l16.009-2.372L172,72.337S175.5,55.511,173.219,39.188Z" style="fill:#26786a"/><path d="M77.162,319.354h0a6.378,6.378,0,0,0,8.518,1.964c12.338-7.158,46.66-23.206,96.666-15.888,0,0,71.692,20.139,115.671-34.081a99.62,99.62,0,0,0,13.157-19.577c15-29.293-2.123-64.926-34.292-71.874-13.094-2.827-30.18-3.522-50.643,2.116l-80.557,72.294S123.387,284.2,79.251,310.319A6.383,6.383,0,0,0,77.162,319.354Z" style="fill:#21b0a6"/><path d="M285.977,186.9c.9-.954,1.776-1.926,2.661-2.891a50.6,50.6,0,0,0-11.756-4.106c-13.094-2.827-30.18-3.522-50.643,2.116l-80.557,72.294a168.893,168.893,0,0,1-16.011,17.565c-.207.2-.413.4-.625.608q-.556.54-1.132,1.09l-.585.555q-.984.935-2.019,1.9l-.664.614q-1.053.972-2.162,1.969c-.22.2-.437.395-.66.6q-.664.594-1.349,1.2c-.258.228-.523.459-.785.688-.348.3-.692.607-1.047.914h0a272.186,272.186,0,0,1-39.187,28.2,6.545,6.545,0,0,0-2.555,8.741,6.378,6.378,0,0,0,8.774,2.382c1.627-.944,3.648-2.045,6.025-3.225v0l.309-.3a142.06,142.06,0,0,1,50.9-31.449c6.359-2.287,13.642-4.933,21.458-7.822a38.068,38.068,0,0,1,15.921.655l19.86,5.12a1.592,1.592,0,0,0,1.134-2.952l-18.572-9.693c13.654-5.184,27.929-10.776,41.137-16.271l.041.093,5.9-2.588q3.12-1.324,6.131-2.634a47.71,47.71,0,0,1,24.706-2.64l15.229,2.4a1.44,1.44,0,0,0,.881-2.705l-4.088-2.091a50.556,50.556,0,0,0-15.369-4.961,71.092,71.092,0,0,0,17.639-14l5.518-5.96a1.248,1.248,0,0,0-1.612-1.883L274.4,221.4a135.637,135.637,0,0,1-15.754,9.263q-.923.453-1.833.934c-6.492,3.426-14.747,7.264-23.988,11.281-.078.03-.158.055-.236.086q-.93.369-1.849.772l-3.85,1.69q-4.442,1.882-9.093,3.8a1.782,1.782,0,0,1-1.641-3.149C245.9,226.908,271.316,202.355,285.977,186.9Z" style="fill:#26786a"/><path d="M71.289,276.575a249.993,249.993,0,0,0,7.74-55.625,170.632,170.632,0,0,1,14.914-65.958c15.284-34.165,44.41-79.841,97.823-110.83,0,0,46.093-30.061,86.873-24.155a50.117,50.117,0,0,1,41.174,36.006c4.916,17.692,5.413,45.184-14.914,81.894a193.784,193.784,0,0,1-29.081,39.355c-19.156,20.2-57.792,57.013-99.336,74.138,0,0-53.046,22.927-87.661,16.633Z" style="fill:#21b0a6"/><path d="M37.663,325.581h0A7.31,7.31,0,0,0,48.17,324.5c14.419-18.522,58.958-74.994,87.555-103.06,10.506-10.312,20.691-20.942,30.407-32C194.2,157.491,244.483,99.027,266.575,65.709c0,0-144.921,126.366-230.183,250.126A7.327,7.327,0,0,0,37.663,325.581Z" style="fill:#26786a"/><path d="M113.887,232.354l-6.291-4.942,2.471-3.146c9.389-11.949,8.26-22.681,9.389-31.952l1.35-20.976a1.551,1.551,0,0,1,3.078-.158l2.526,14.945a63.125,63.125,0,0,1,.635,17.124,48.575,48.575,0,0,1-10.687,25.959Z" style="fill:#26786a"/><path d="M160.988,192.485l-5.094-6.169,3.085-2.547c12.988-10.724,23.718-15.054,34.449-16.548a66.281,66.281,0,0,1,15.993-.142l13.588,1.413a1.576,1.576,0,0,1-.076,3.141l-15.125.837a89,89,0,0,0-13.376,1.7c-9.843,2.067-18.066,5.613-30.36,15.764Z" style="fill:#26786a"/><path d="M202.12,138.585l-5.555-5.756,2.879-2.778a80.509,80.509,0,0,0,11.18-14.238,67.672,67.672,0,0,0,10.124-32.647l.371-7.414a1.206,1.206,0,0,1,2.4-.111l1.327,9.257a48.536,48.536,0,0,1-1.82,22.191A75.924,75.924,0,0,1,205,135.808Z" style="fill:#26786a"/></svg>