<?xml version="1.0" ?><svg id="Flat" viewBox="0 0 340 340" xmlns="http://www.w3.org/2000/svg"><title/><path d="M177.615,115.434s9.912-12.791,24.3-5.436c0,0,4.85-10.815,16.627-10.553,0,0,12.151.32,16.628,12.151,0,0,11.511-15.291,25.9-4.288,0,0,18.546-8.5,26.22,5.887,0,0,24.622-1.279,20.785,24.942,0,0,17.907,4.8,12.471,22.063,0,0,6.715,13.75-4.8,19.826,0,0,3.837,14.5-9.273,20.519H185.609S161.626,162.758,177.615,115.434Z" style="fill:#88d882"/><path d="M177.615,115.434s9.912-12.791,24.3-5.436c0,0,4.85-10.815,16.627-10.553,0,0,12.151.32,16.628,12.151,0,0,11.511-15.291,25.9-4.288,0,0,18.546-8.5,26.22,5.887,0,0,24.622-1.279,20.785,24.942,0,0,17.907,4.8,12.471,22.063,0,0,6.715,13.75-4.8,19.826,0,0,3.837,14.5-9.273,20.519H185.609S161.626,162.758,177.615,115.434Z" style="fill:#88d882"/><path d="M278.288,189.259a8.961,8.961,0,0,1-8.953-8.727A44.166,44.166,0,0,0,258.9,152.918S241.7,166.511,221.344,182.6l-9.727-32.114c-6.314-14.2-14.821-17.655-14.821-17.655a75.58,75.58,0,0,0-.868-24.858c-11.077-1.862-18.313,7.461-18.313,7.461-14.814,43.848,4.683,79.5,7.628,84.506l16.936-2.186-3.529,2.791H306.479a15.776,15.776,0,0,0,9.315-11.286Z" style="fill:#54964d"/><path d="M197.374,169.271l21.279-28.065a7.544,7.544,0,0,1,12.252.322,42.319,42.319,0,0,1,7.009,31.45l-31.147,27.567Z" style="fill:#e85d71"/><path d="M216.011,187.947a18.026,18.026,0,0,1-.883-8.152c1.287-12.412-.478-21.995-3.511-29.309l-14.243,18.785,9.393,31.274,10.812-9.569A12.457,12.457,0,0,1,216.011,187.947Z" style="fill:#bc2b4e"/><path d="M206.767,200.545l31.147-27.567a41.491,41.491,0,0,0-1.96-21.684l-35.467,28.343Z" style="fill:#bc2b4e"/><path d="M202.47,188.215l45.752-36.561a7.535,7.535,0,0,1,11.85,3.46c3.386,10.1,4.809,27.236-12.765,45.431H203.4Z" style="fill:#e85d71"/><path d="M220.169,193.14c-1.75-.715-3.148-2.462-4.158-5.193a18.026,18.026,0,0,1-.883-8.152c.064-.618.111-1.219.16-1.823L202.47,188.215l.927,12.33h34.9Z" style="fill:#bc2b4e"/><path d="M140.637,200.545s-31.8-71.709-6.469-110.008c9.968-15.069,32.017-15.884,42.781-1.373,7.182,9.682,13.189,24.687,12.156,47.535,0,0,21.527,8.886,18.066,42.271a26.126,26.126,0,0,0,1.336,11.751c1.418,3.836,3.987,7.925,8.636,9.824Z" style="fill:#21b0a6"/><path d="M168.38,170.829a77.661,77.661,0,0,1-14.8-21.528c-7.711-16.228-18.009-26.248-28.5-32.379-4.715,37.921,15.552,83.623,15.552,83.623h76.506a15.031,15.031,0,0,1-7.719-7.708l-1.1-.138C193.254,189.705,179.814,182.347,168.38,170.829Z" style="fill:#26786a"/><path d="M174.331,154.34a4,4,0,0,0-5.371-1.777l-5.638,2.835a20.338,20.338,0,0,0-4.619,2.859c-.7-7.294-1.013-15.318-1.115-22.77a17.054,17.054,0,0,1,6.3-12.448l4.154-3.369A4,4,0,0,0,163,113.457l-4.154,3.368c-.4.326-.789.664-1.167,1.011.133-5.8.318-9.579.324-9.7a4,4,0,0,0-7.99-.4c-.047.942-.476,28.283-.477,28.62,0,.175,0,14.138,3.415,37.2a30.7,30.7,0,0,0,2.528,8.934,4,4,0,0,0,7.32-3.227,23.178,23.178,0,0,1-1.934-6.543,3.918,3.918,0,0,0-.056-.546c-.536-6.642,4.073-8.707,5.86-9.506.056-.025.11-.05.165-.078l5.717-2.874A4,4,0,0,0,174.331,154.34Z" style="fill:#26786a"/><path d="M63.754,200.545s-5.443-5.894-6.433-17.275c0,0-22.464,2.178-31.662-22.9-1.2-3.264-2.525-6.484-4.04-9.614-3.794-7.839-9.242-24.776,6.214-37.285a36.1,36.1,0,0,1,15.642-7.183c9.3-1.872,24.64-2.423,34.135,10.673,0,0,46.3-11.461,68.748,35.775a85.466,85.466,0,0,0,60.409,47.811Z" style="fill:#21b0a6"/><path d="M131.107,195.134a3.947,3.947,0,0,0-.915-.843,20.1,20.1,0,0,1-9.236-16.955v-7.472a4,4,0,0,0-8,0v7.472a28.422,28.422,0,0,0,.57,5.63c-9.709-7.2-18.882-14.731-26.811-21.592a19.421,19.421,0,0,1-5.745-15.025l.406-6.934a4,4,0,1,0-7.986-.468l-.406,6.933a27.866,27.866,0,0,0,0,3.205c-8.1-7.491-13.1-12.558-13.247-12.706a4,4,0,1,0-5.709,5.6,416.6,416.6,0,0,0,35.154,32.042,25.737,25.737,0,0,0-3.391.653l-9.072,2.416a4,4,0,1,0,2.059,7.73l9.072-2.416a18.057,18.057,0,0,1,15.711,3.22s10.943,7.809,21.689,14.917h14.773Q135.565,197.983,131.107,195.134Z" style="fill:#26786a"/><path d="M228.464,102.9a21.644,21.644,0,0,0,1.869,17.445,1.429,1.429,0,0,0,2.675-.679,15.306,15.306,0,0,1,2.164-8.073A18.071,18.071,0,0,0,228.464,102.9Z" style="fill:#54964d"/><path d="M307.622,126.25c-3.122-3.535-5.733-4.875-9.563-5.466-7.779-1.2-14.862,1.6-19.242,8.142a19.525,19.525,0,0,0-2.612,16.806,1.428,1.428,0,0,0,2.713.1c1.16-3.152,3.282-7.619,6.724-10.547,5.093-4.334,15.826-6.764,21.922,2.16.31.455.514.695.514.695A28.271,28.271,0,0,0,307.622,126.25Z" style="fill:#54964d"/><path d="M24.028,200.545c28.741,46.106,106.581,50.3,106.581,50.3v10.415h84.952V250.842s77.84-4.191,106.581-50.3Z" style="fill:#d7dee2"/><path d="M322.142,200.545H280.658c-5.339,7.624-27.534,34.4-81.223,43.727a10.089,10.089,0,0,0-8.386,9.925v7.06h24.512V250.842S293.4,246.651,322.142,200.545Z" style="fill:#b3bec6"/></svg>